<?xml version="1.0" standalone="no"?>
<!DOCTYPE svg PUBLIC "-//W3C//DTD SVG 20010904//EN"
 "http://www.w3.org/TR/2001/REC-SVG-20010904/DTD/svg10.dtd">
<svg version="1.0" xmlns="http://www.w3.org/2000/svg"
 width="700.000000pt" height="700.000000pt" viewBox="0 0 700.000000 700.000000"
 preserveAspectRatio="xMidYMid meet">
<metadata>
Created by potrace 1.11, written by Peter Selinger 2001-2013
</metadata>
<g transform="translate(0.000000,700.000000) scale(0.100000,-0.100000)"
fill="#000000" stroke="none">
<path d="M3317 6764 c-230 -42 -473 -194 -606 -379 l-23 -33 -47 34 c-112 80
-303 154 -437 169 -424 48 -825 -168 -1009 -543 -31 -64 -59 -141 -71 -193
-47 -213 -36 -406 36 -593 89 -230 256 -415 475 -524 100 -50 184 -78 272 -92
73 -12 81 -16 87 -46 2 -10 52 -260 111 -554 59 -294 109 -544 111 -555 2 -11
8 -42 14 -70 6 -27 12 -61 15 -75 31 -158 51 -250 57 -260 4 -7 22 -5 121 15
66 14 87 22 87 34 -1 9 -14 77 -29 151 -16 74 -28 136 -27 138 2 1 473 1 1047
0 l1045 -3 -29 -148 c-16 -81 -28 -150 -25 -152 2 -2 18 -6 35 -10 18 -3 63
-12 100 -19 37 -8 70 -13 72 -10 2 2 10 34 17 71 7 38 16 79 19 92 2 14 18 93
35 176 41 205 40 197 45 225 2 14 47 239 100 500 52 261 95 477 95 480 0 3 36
11 81 18 374 59 707 367 790 730 6 26 13 56 16 67 2 11 7 67 10 124 21 392
-192 756 -546 931 -319 157 -703 132 -988 -67 l-61 -42 -17 26 c-49 74 -173
191 -263 247 -109 68 -245 123 -347 141 -82 14 -290 13 -368 -1z m367 -225
c117 -30 243 -99 330 -180 66 -61 165 -190 166 -215 1 -14 34 -50 57 -63 48
-25 105 -8 158 49 88 93 244 174 383 200 375 68 744 -145 865 -500 32 -94 39
-133 42 -239 9 -327 -206 -632 -519 -736 -84 -28 -102 -32 -211 -41 -101 -8
-132 -35 -150 -129 -4 -22 -9 -51 -11 -64 -17 -87 -196 -979 -200 -993 -5 -16
-24 -18 -215 -18 -196 0 -210 1 -205 18 4 17 10 54 21 142 3 25 8 52 10 60 2
8 7 40 10 70 3 30 7 62 10 70 2 8 7 42 10 75 4 32 8 62 10 65 10 17 15 140 6
141 -6 1 -14 2 -18 3 -13 3 -95 15 -143 21 -39 5 -46 4 -46 -12 0 -10 -3 -36
-7 -58 -10 -64 -27 -186 -33 -230 -2 -22 -7 -51 -9 -65 -2 -14 -7 -47 -11 -75
-3 -27 -8 -57 -9 -66 -2 -9 -6 -38 -10 -65 -3 -27 -7 -58 -9 -69 -3 -19 -12
-20 -174 -23 l-172 -2 0 602 0 603 -67 -2 c-38 -1 -87 -2 -110 -2 l-43 -1 0
-600 0 -600 -170 0 c-93 0 -170 3 -171 8 0 4 -2 14 -4 22 -1 8 -6 35 -9 60 -4
25 -9 56 -11 70 -3 14 -7 45 -10 70 -3 25 -7 56 -10 70 -2 14 -6 41 -9 60 -3
19 -12 87 -21 150 -9 63 -18 124 -19 135 -4 22 -13 23 -109 12 -112 -13 -110
-12 -103 -76 3 -31 8 -67 11 -81 3 -13 7 -42 10 -65 3 -22 10 -69 15 -105 10
-71 16 -107 31 -217 5 -39 12 -81 14 -92 4 -21 1 -21 -205 -21 -190 0 -209 2
-214 18 -5 18 -114 554 -123 607 -28 164 -105 511 -117 530 -23 35 -41 42
-131 49 -199 17 -351 84 -484 215 -100 97 -143 161 -187 279 -35 93 -46 147
-49 250 -7 243 106 481 300 629 82 62 214 124 295 138 14 2 41 7 60 10 53 10
188 7 250 -5 145 -27 297 -107 385 -200 78 -82 154 -80 208 4 15 24 27 46 27
50 0 3 13 24 29 47 112 154 261 257 441 305 108 29 269 30 374 3z"/>
<path d="M1230 6719 c-173 -130 -328 -315 -425 -508 -51 -102 -110 -287 -130
-406 -15 -91 -22 -315 -11 -385 2 -14 7 -45 11 -69 8 -54 53 -232 60 -239 4
-4 190 54 203 63 1 1 -9 46 -22 99 -46 176 -52 325 -22 516 7 47 44 175 65
228 81 203 210 374 389 515 35 27 62 52 60 56 -9 19 -114 171 -118 171 -3 0
-30 -18 -60 -41z"/>
<path d="M966 4935 c-32 -19 -61 -35 -65 -35 -3 0 -17 -9 -30 -19 l-24 -18 52
-77 c28 -42 65 -92 82 -111 l31 -35 37 31 c102 89 124 112 115 124 -5 7 -35
49 -67 94 -32 44 -62 81 -66 81 -4 0 -33 -16 -65 -35z"/>
<path d="M1007 4154 c-1 -1 -27 -4 -57 -7 -123 -13 -208 -38 -310 -94 -60 -32
-171 -115 -195 -145 -6 -7 -29 -35 -52 -63 -69 -84 -142 -235 -158 -327 -3
-16 -7 -42 -10 -58 -8 -47 -9 -180 -1 -230 39 -252 195 -514 395 -663 31 -23
57 -45 59 -49 2 -5 9 -8 15 -8 6 0 18 -6 26 -14 33 -30 179 -96 266 -120 231
-65 470 -49 674 45 35 16 69 29 76 27 16 -4 1065 -750 1065 -757 0 -3 -53 -40
-118 -81 -439 -279 -930 -597 -955 -619 -143 -128 -182 -354 -90 -523 54 -98
184 -197 284 -215 60 -11 162 -6 219 10 48 14 167 85 250 149 14 11 135 98
270 193 328 232 442 313 655 464 143 102 184 127 197 120 10 -6 147 -101 305
-214 159 -112 303 -214 321 -227 18 -13 39 -27 45 -33 7 -5 26 -19 42 -31 17
-11 146 -103 287 -203 141 -100 283 -193 315 -208 80 -35 211 -40 297 -11 254
85 369 374 243 611 -44 84 -105 134 -360 297 -125 80 -285 182 -355 227 -70
44 -200 128 -289 184 -90 57 -163 106 -163 110 0 5 166 125 400 290 36 25 199
141 363 257 164 117 303 212 308 212 5 0 26 -8 47 -19 117 -59 307 -99 452
-95 363 10 717 236 898 574 37 68 74 166 87 230 20 93 23 127 21 230 -6 220
-81 396 -234 547 -294 290 -782 318 -1177 69 -178 -113 -290 -234 -380 -413
-68 -136 -97 -257 -99 -419 l-1 -132 -145 -93 c-80 -51 -181 -116 -225 -145
-44 -28 -134 -86 -200 -128 -66 -42 -127 -81 -135 -86 -202 -132 -673 -430
-680 -430 -8 0 -347 213 -462 291 -31 22 -60 39 -63 39 -3 0 -11 5 -18 10 -12
11 -460 299 -510 329 -15 9 -96 61 -179 116 l-151 100 -3 135 c-2 108 -8 154
-28 227 -64 230 -196 419 -391 558 -115 82 -276 159 -376 179 -115 23 -155 28
-227 30 -46 1 -84 1 -85 0z m260 -243 c98 -27 160 -53 239 -101 82 -50 86 -53
173 -141 154 -154 223 -328 216 -549 -2 -58 -6 -117 -9 -132 -15 -65 5 -83
278 -259 140 -90 267 -171 281 -179 14 -8 98 -62 188 -119 89 -58 194 -125
232 -150 39 -24 106 -68 150 -96 44 -29 139 -89 210 -135 72 -45 153 -97 180
-115 28 -18 309 -198 625 -400 316 -203 614 -393 662 -424 48 -31 151 -96 229
-146 78 -49 160 -104 183 -120 167 -124 87 -381 -119 -379 -35 0 -73 7 -90 16
-16 9 -147 100 -290 201 -143 102 -297 212 -343 244 -45 32 -90 64 -100 71 -9
7 -91 66 -182 130 -91 64 -363 257 -605 429 -242 171 -458 325 -480 341 -22
16 -166 118 -320 227 -154 109 -388 275 -520 369 -132 94 -256 179 -275 189
-42 21 -76 16 -139 -23 -228 -140 -538 -139 -773 1 -172 102 -288 227 -363
393 -120 264 -82 518 106 707 154 155 414 215 656 150z m4847 5 c236 -65 400
-241 442 -476 12 -72 1 -218 -23 -290 -66 -196 -177 -338 -360 -462 -87 -59
-214 -111 -303 -124 -92 -14 -229 -7 -314 15 -43 12 -124 44 -179 71 -78 40
-106 50 -128 45 -28 -6 -184 -114 -1027 -713 -64 -46 -129 -92 -144 -103 -16
-10 -41 -28 -57 -40 l-29 -21 -113 74 c-63 41 -128 83 -146 94 l-32 20 77 47
c42 26 174 111 292 187 118 77 225 145 237 152 13 7 152 96 310 198 529 339
504 319 497 385 -21 202 -8 329 47 462 104 248 368 449 644 489 22 4 42 8 43
9 11 10 215 -6 266 -19z m-2958 -2472 c82 -59 150 -107 151 -108 1 -1 -153
-112 -343 -246 -190 -135 -364 -259 -387 -276 -207 -154 -465 -328 -500 -339
-75 -22 -154 -4 -206 47 -58 57 -77 121 -59 200 13 59 50 103 127 152 36 24
170 110 296 191 127 81 242 155 257 164 41 24 343 219 423 273 39 26 75 47 81
47 6 1 78 -47 160 -105z"/>
<path d="M6545 2418 c-238 -196 -514 -298 -805 -298 -128 -1 -289 23 -381 55
-42 15 -93 12 -119 -7 -10 -7 -62 -44 -117 -82 -54 -39 -100 -72 -103 -75 -3
-4 -25 -20 -50 -36 -25 -16 -47 -32 -50 -35 -3 -3 -34 -25 -70 -49 -111 -76
-107 -62 -43 -155 65 -94 70 -98 92 -80 9 7 107 78 219 157 l204 143 101 -24
c86 -20 130 -24 282 -26 195 -1 254 4 371 35 173 45 323 110 457 198 90 59
207 151 207 163 0 4 -28 37 -62 74 -35 36 -64 70 -66 75 -6 15 -14 10 -67 -33z"/>
</g>
</svg>
