<svg width="23" height="23" viewBox="0 0 23 23" fill="none" xmlns="http://www.w3.org/2000/svg">
<path fill-rule="evenodd" clip-rule="evenodd" d="M13.5305 13.8264C12.3059 14.9786 10.6567 15.6846 8.84251 15.6846C5.06345 15.6846 2 12.6212 2 8.84231C2 5.06345 5.06345 2 8.84251 2C12.6216 2 15.685 5.06345 15.685 8.84231C15.685 10.6576 14.9781 12.3077 13.8245 13.5326C13.767 13.57 13.7125 13.6139 13.662 13.6644C13.6117 13.7147 13.5679 13.7691 13.5305 13.8264ZM14.3467 15.7632C12.8363 16.9659 10.9233 17.6846 8.84251 17.6846C3.95893 17.6846 0 13.7258 0 8.84231C0 3.95884 3.95893 0 8.84251 0C13.7261 0 17.685 3.95884 17.685 8.84231C17.685 10.9244 16.9654 12.8385 15.7612 14.3493L21.7091 20.297C22.0996 20.6876 22.0996 21.3207 21.7091 21.7112C21.3186 22.1018 20.6854 22.1018 20.2949 21.7113L14.3467 15.7632Z" fill="#444444" fill-opacity="0.6"/>
</svg>
