<svg width="20" height="18" viewBox="0 0 20 18" fill="none" xmlns="http://www.w3.org/2000/svg">
<path d="M18.6607 3.73242C17.7679 2.58017 16.5551 1.66993 15.0224 1.00194C13.4897 0.333953 11.8155 0 10 0C8.18455 0 6.51039 0.333953 4.97767 1.00194C3.44495 1.66993 2.23218 2.58001 1.3393 3.73242C0.446382 4.88476 0 6.14057 0 7.49998C0 8.67181 0.336575 9.7698 1.01 10.7932C1.68342 11.8167 2.60406 12.6762 3.77233 13.3715C3.6904 13.6839 3.59369 13.9807 3.48204 14.2622C3.37044 14.5434 3.27001 14.7739 3.18073 14.9537C3.09137 15.1332 2.97057 15.3325 2.81792 15.5511C2.66551 15.77 2.55019 15.9243 2.47204 16.0142C2.39398 16.1041 2.26564 16.2523 2.08696 16.4595C1.90851 16.6664 1.79311 16.8014 1.74108 16.8639C1.73354 16.8679 1.70383 16.9028 1.65176 16.9696C1.59973 17.0359 1.57361 17.0689 1.57361 17.0689L1.50665 17.1744C1.4694 17.2326 1.45267 17.2699 1.45634 17.2853C1.46009 17.3011 1.45267 17.3401 1.43406 17.4024C1.41541 17.4651 1.41733 17.512 1.43961 17.5432V17.555C1.4694 17.6877 1.52885 17.7952 1.61814 17.8772C1.70742 17.959 1.80804 18 1.91953 18H1.97539C2.45915 17.9374 2.88321 17.8517 3.24773 17.7423C5.19721 17.2189 6.90858 16.2736 8.38173 14.9062C8.93971 14.9687 9.47917 14.9999 9.99994 14.9999C11.8154 14.9999 13.4896 14.666 15.0223 13.9978C16.555 13.3298 17.7678 12.4198 18.6606 11.2675C19.5536 10.1153 20 8.85936 20 7.49994C20 6.14073 19.5537 4.88476 18.6607 3.73242ZM17.4051 10.4884C16.6273 11.4101 15.5782 12.1427 14.2576 12.6856C12.9369 13.2283 11.5176 13.5 9.99975 13.5C9.54594 13.5 9.06234 13.4688 8.54896 13.4062L7.91279 13.3361L7.43287 13.7815C6.51782 14.6253 5.49465 15.2932 4.3637 15.7854C4.70591 15.1527 4.96633 14.4808 5.14498 13.77L5.44629 12.6448L4.47535 12.0591C3.50808 11.4806 2.75854 10.7951 2.22644 10.0021C1.69441 9.20927 1.42851 8.37509 1.42851 7.50015C1.42851 6.42978 1.81727 5.43375 2.59475 4.51185C3.37247 3.59003 4.42144 2.85756 5.74217 2.3146C7.06291 1.7716 8.48203 1.49987 9.99998 1.49987C11.5178 1.49987 12.9369 1.77148 14.2576 2.31444C15.5782 2.85744 16.6273 3.58987 17.4051 4.51169C18.1826 5.43359 18.5713 6.42966 18.5713 7.49994C18.5713 8.57023 18.1826 9.5665 17.4051 10.4884Z" fill="#F2994A"/>
</svg>
