<svg width="10" height="18" viewBox="0 0 10 18" fill="none" xmlns="http://www.w3.org/2000/svg">
<path d="M9.39935 0.203613L7.11705 0.199951C4.55296 0.199951 2.89593 1.90002 2.89593 4.53133V6.52839H0.60118C0.402886 6.52839 0.24231 6.68915 0.24231 6.88745V9.78096C0.24231 9.97925 0.403069 10.1398 0.60118 10.1398H2.89593V17.4411C2.89593 17.6394 3.05651 17.7999 3.2548 17.7999H6.2488C6.4471 17.7999 6.60767 17.6392 6.60767 17.4411V10.1398H9.29077C9.48907 10.1398 9.64964 9.97925 9.64964 9.78096L9.65074 6.88745C9.65074 6.79224 9.61284 6.70105 9.54564 6.63367C9.47845 6.56629 9.3869 6.52839 9.29169 6.52839H6.60767V4.83546C6.60767 4.02177 6.80157 3.6087 7.86152 3.6087L9.39898 3.60815C9.59709 3.60815 9.75767 3.44739 9.75767 3.24928V0.562487C9.75767 0.364557 9.59728 0.203979 9.39935 0.203613Z" fill="#F4F4F4"/>
</svg>
