<svg width="26" height="16" viewBox="0 0 26 16" fill="none" xmlns="http://www.w3.org/2000/svg">
<path d="M0.205312 8.0098C0.0460251 3.88533 3.71948 0.0738101 7.91756 0.0243593C10.0572 -0.155116 12.1388 0.662033 13.7581 1.99478C13.0939 2.71303 12.418 3.42298 11.6961 4.08762C10.2707 3.23589 8.55436 2.58681 6.88835 3.16327C4.20121 3.91576 2.57388 7.036 3.56828 9.62127C4.39179 12.3214 7.7312 13.8031 10.3484 12.6689C11.7035 12.1917 12.597 10.962 12.9891 9.64064C11.4359 9.61021 9.88245 9.62922 8.32932 9.58704C8.32545 8.67825 8.32158 7.77292 8.32545 6.86413C10.9155 6.86033 13.5095 6.85272 16.1035 6.87554C16.2627 9.10221 15.9287 11.4852 14.4568 13.2723C12.4412 15.8234 8.71751 16.572 5.68824 15.5713C2.47331 14.5328 0.135339 11.3476 0.205312 8.0098Z" fill="white"/>
<path d="M21.1525 4.57251C21.9215 4.57251 22.6902 4.57251 23.4627 4.57251C23.4669 5.3326 23.4743 6.09649 23.4785 6.85624C24.2511 6.86384 25.0278 6.86765 25.8007 6.87145C25.8007 7.63154 25.8007 8.38748 25.8007 9.14757C25.0281 9.15138 24.2514 9.15518 23.4785 9.15898C23.4708 9.92288 23.4669 10.6826 23.4627 11.4465C22.6902 11.4427 21.9169 11.4465 21.1483 11.4465C21.1409 10.6826 21.1409 9.92288 21.1328 9.16279C20.3603 9.15483 19.5835 9.15138 18.8107 9.14723C18.8107 8.38714 18.8107 7.6312 18.8107 6.87111C19.5835 6.8673 20.3564 6.8635 21.1328 6.85589C21.1367 6.09649 21.1444 5.3326 21.1525 4.57251Z" fill="white"/>
</svg>
