<svg width="24" height="21" viewBox="0 0 24 21" fill="none" xmlns="http://www.w3.org/2000/svg">
<path d="M12 4.5339L11.1943 3.43826C10.7967 2.89751 10.3521 2.44287 9.86992 2.07617L9.86987 2.07613C8.92475 1.35723 7.86807 1 6.70441 1C5.12113 1 3.68241 1.62001 2.63338 2.73896L12 4.5339ZM12 4.5339L12.8056 3.4383M12 4.5339L12.8056 3.4383M12.8056 3.4383C13.2034 2.89737 13.6479 2.4429 14.1299 2.07618L12.8056 3.4383ZM8.98133 17.5786L8.98139 17.5786L8.98478 17.5815C9.8091 18.2725 10.7483 19.0598 11.7242 19.8989L11.7249 19.8995C11.7984 19.9628 11.8957 20 12 20C12.1044 20 12.2018 19.9627 12.2748 19.8998L12.2754 19.8993C13.244 19.0662 14.1772 18.2839 14.9973 17.5964L15.0191 17.5781L15.0192 17.5781C17.4597 15.5327 19.4704 13.8433 20.8551 12.2L20.8551 12.1999C22.368 10.4046 23 8.79758 23 7.09352C23 5.38598 22.4058 3.84783 21.3665 2.73905L8.98133 17.5786ZM8.98133 17.5786C6.54056 15.5329 4.52975 13.8433 3.14509 12.2001C1.6321 10.4046 1 8.79751 1 7.0937C1 5.38599 1.59416 3.84784 2.6333 2.73905L8.98133 17.5786ZM17.2956 1C18.8789 1 20.3174 1.62001 21.3665 2.73901L14.13 2.07608C15.0753 1.35719 16.132 1 17.2956 1Z" stroke="#2E8B42" stroke-width="2"/>
</svg>
