<svg width="24" height="22" viewBox="0 0 24 22" fill="none" xmlns="http://www.w3.org/2000/svg">
<path d="M21.2171 0.776123H1.94731C1.15815 0.776123 0.452915 1.24638 0.151608 1.97257C-0.152854 2.70073 0.00943724 3.53325 0.564856 4.09207L2.30296 5.84773C2.97792 6.5289 3.34915 7.43174 3.34915 8.3898V17.8962C3.34915 19.7311 4.84192 21.2239 6.67718 21.2239H17.1256C18.961 21.2239 20.4536 19.7311 20.4536 17.8962V3.16206H21.2171C21.4362 3.16206 21.614 3.33989 21.614 3.55889V8.7129C21.614 9.37188 22.1484 9.90585 22.807 9.90585C23.4657 9.90585 23.9999 9.37188 23.9999 8.7129V3.55889C24 2.0246 22.752 0.776123 21.2171 0.776123ZM18.0678 17.8962C18.0678 18.4154 17.6453 18.8379 17.1256 18.8379H6.67718C6.17862 18.8379 5.77849 18.4453 5.74673 17.9544H7.00028C7.43986 17.9544 7.79561 17.5983 7.79561 17.1591C7.79561 16.72 7.43986 16.3638 7.00028 16.3638H5.73514V14.7732H7.00028C7.43986 14.7732 7.79561 14.4172 7.79561 13.9779C7.79561 13.5387 7.43986 13.1826 7.00028 13.1826H5.73514V11.592H7.00028C7.43986 11.592 7.79561 11.2359 7.79561 10.7967C7.79561 10.3575 7.43986 10.0014 7.00028 10.0014H5.73514V8.41081H7.00028C7.43986 8.41081 7.79561 8.05471 7.79561 7.61553C7.79561 7.17634 7.43986 6.8202 7.00028 6.8202H5.52226C5.25517 5.82919 4.74014 4.91778 3.99837 4.16905L3.00115 3.16206H18.0678V17.8962H18.0678Z" fill="#F2994A"/>
</svg>
