<svg width="20" height="20" viewBox="0 0 20 20" fill="none" xmlns="http://www.w3.org/2000/svg">
<path d="M10 0.409401C6.06787 0.409401 2.33391 0.0598887 0.90768 3.71732C0.318562 5.2279 0.404114 7.18972 0.404114 9.9988C0.404114 12.4638 0.32506 14.7805 0.90768 16.2792C2.33066 19.9388 6.09495 19.5882 9.99785 19.5882C13.7632 19.5882 17.6456 19.9799 19.0891 16.2792C19.6793 14.7535 19.5927 12.8209 19.5927 9.9988C19.5927 6.25263 19.7995 3.83418 17.9813 2.01845C16.1403 0.178917 13.6506 0.409401 9.99569 0.409401H10ZM9.14017 2.13748C17.3423 2.1245 18.3863 1.21339 17.8102 13.8705C17.6055 18.347 14.1942 17.8558 10.0011 17.8558C2.35557 17.8558 2.13573 17.6372 2.13573 9.99447C2.13573 2.263 2.74217 2.14181 9.14017 2.13532V2.13748ZM15.1223 3.72922C14.4866 3.72922 13.9711 4.24429 13.9711 4.87947C13.9711 5.51465 14.4866 6.02973 15.1223 6.02973C15.758 6.02973 16.2735 5.51465 16.2735 4.87947C16.2735 4.24429 15.758 3.72922 15.1223 3.72922ZM10 5.07425C7.2786 5.07425 5.07266 7.27953 5.07266 9.9988C5.07266 12.7181 7.2786 14.9223 10 14.9223C12.7214 14.9223 14.9263 12.7181 14.9263 9.9988C14.9263 7.27953 12.7214 5.07425 10 5.07425ZM10 6.80233C14.2289 6.80233 14.2343 13.1953 10 13.1953C5.77223 13.1953 5.76573 6.80233 10 6.80233Z" fill="white"/>
</svg>
