<svg width="20" height="18" viewBox="0 0 20 18" fill="none" xmlns="http://www.w3.org/2000/svg">
<path d="M18.4505 9.82121L18.7636 9.48503C19.0928 9.13152 19.25 8.73211 19.25 8.2501C19.25 7.86361 19.1097 7.52949 18.7745 7.21443C18.4384 6.89947 18.0596 6.74981 17.6008 6.74981H14.1384H13.1263L13.4209 5.78147C13.4597 5.65419 13.5018 5.53393 13.5483 5.42467C13.6011 5.30015 13.6678 5.17921 13.7382 5.06564L13.7383 5.06555C13.7959 4.97267 13.8262 4.92049 13.8386 4.89733L13.843 4.88908L13.8476 4.88094C13.9926 4.62419 14.0962 4.42537 14.1633 4.28002C14.217 4.16327 14.2829 3.97516 14.3574 3.69664C14.4202 3.4614 14.4506 3.22952 14.4506 2.99986C14.4506 2.81823 14.4482 2.67451 14.4447 2.56809L14.4446 2.56779C14.4424 2.50045 14.4278 2.36401 14.3913 2.1339C14.3592 1.93448 14.3208 1.79696 14.2854 1.70811C14.2512 1.62297 14.1847 1.49924 14.0684 1.33387L18.4505 9.82121ZM18.4505 9.82121L18.6077 10.2529C18.7156 10.549 18.7496 10.7536 18.749 10.8839L18.7489 10.9014L18.7497 10.9189C18.7669 11.325 18.6503 11.6831 18.3773 12.0225L18.1235 12.3381L18.2481 12.7233C18.3391 13.0048 18.3447 13.3065 18.2428 13.6498L18.2427 13.6498L18.2395 13.661C18.151 13.9769 17.9993 14.2168 17.7883 14.4045L17.5075 14.6542L17.5395 15.0287C17.6007 15.745 17.432 16.2325 17.1158 16.5855M18.4505 9.82121L18.2868 14.9648M8.77472 17.0157C9.41629 17.2185 9.91829 17.373 10.2808 17.4783C10.6432 17.5836 11.1498 17.697 11.7993 17.8183M8.77472 17.0157L9.00848 16.303C9.00722 16.3026 9.00595 16.3022 9.00469 16.3018M8.77472 17.0157L9.00077 16.3005C9.00208 16.3009 9.00338 16.3014 9.00469 16.3018M8.77472 17.0157C7.74966 16.6794 7.09132 16.5077 6.79969 16.4999L6.82681 15.7504C6.82616 15.7503 6.82552 15.7503 6.82489 15.7503M9.00469 16.3018C9.64291 16.5035 10.1369 16.6555 10.4901 16.7581L10.4901 16.7581C10.8177 16.8533 11.2965 16.9614 11.937 17.081M9.00469 16.3018C8.48652 16.1319 8.05079 16.0001 7.70161 15.9089C7.37286 15.8231 7.06402 15.7575 6.82489 15.7503M11.937 17.081C11.9368 17.081 11.9367 17.0809 11.9366 17.0809L11.7993 17.8183M11.937 17.081L11.7993 17.8183M11.937 17.081C12.5506 17.1952 13.1038 17.25 13.5992 17.25H13.8117H14.7618H15.2063M11.7993 17.8183C12.4494 17.9393 13.0493 18 13.5992 18H13.8117H14.7618H15.2117M15.2117 18L15.2011 17.2501C15.2029 17.25 15.2046 17.25 15.2063 17.25M15.2117 18C16.3203 17.9844 17.1408 17.6796 17.6743 17.086M15.2117 18V17.25H15.2063M15.2063 17.25C16.1856 17.2353 16.77 16.9696 17.1158 16.5855M17.6743 17.086L17.1158 16.5855M17.6743 17.086C18.1575 16.5469 18.3615 15.8398 18.2868 14.9648M17.6743 17.086L17.1165 16.5847C17.1162 16.5849 17.116 16.5852 17.1158 16.5855M18.2868 14.9648C18.6117 14.6758 18.8369 14.3088 18.9617 13.8634L18.2868 14.9648ZM6.82489 15.7503C6.7885 15.7488 6.77119 15.7417 6.74976 15.7234M6.82489 15.7503L6.74976 15.7234M6.74976 15.7234V8.2642C6.77106 8.24462 6.78608 8.23846 6.81825 8.23605L6.82069 8.23586C7.13786 8.21105 7.40918 8.0423 7.59102 7.90995C7.79759 7.75959 8.01843 7.55739 8.24972 7.31968L8.24973 7.31967C8.6979 6.85906 9.13227 6.37116 9.5531 5.85623C10.1181 5.17886 10.5124 4.74268 10.7502 4.51974L10.7503 4.51967C10.9862 4.29846 11.1666 4.02513 11.3055 3.72485L11.3056 3.72451C11.4206 3.4756 11.5151 3.2395 11.5692 3.03126C11.6101 2.87443 11.6684 2.628 11.7436 2.30038L11.7466 2.2869L11.7492 2.27331C11.806 1.97589 11.8542 1.75772 11.8933 1.61128C11.9217 1.50493 11.9802 1.35111 12.0839 1.14281L12.084 1.14255C12.1663 0.977131 12.2574 0.857146 12.3505 0.769864C12.3589 0.762062 12.3648 0.757894 12.3679 0.755874C12.371 0.753897 12.3726 0.753218 12.3732 0.752986C12.3738 0.752755 12.3753 0.75218 12.3786 0.75157C12.382 0.75094 12.3889 0.75 12.4 0.75C12.7313 0.75 13.0076 0.785533 13.2365 0.847217C13.494 0.916628 13.671 0.993793 13.7873 1.0656C13.8941 1.1316 13.987 1.21825 14.0683 1.33378L6.74976 15.7234Z" stroke="#F2994A" stroke-width="1.5"/>
<path d="M4.40004 7.50015H0.800151C0.583345 7.50015 0.395829 7.5744 0.237515 7.72286C0.0792008 7.87124 0 8.04703 0 8.25017V15.7504C0 15.9533 0.0792008 16.1291 0.237559 16.2777C0.396004 16.4259 0.58352 16.5002 0.800195 16.5002H4.40004C4.61667 16.5002 4.8041 16.4259 4.9625 16.2777C5.12082 16.1291 5.19998 15.9533 5.19998 15.7504V8.25017C5.19998 8.04703 5.12077 7.87128 4.9625 7.72286C4.80415 7.57436 4.61672 7.50015 4.40004 7.50015ZM2.96248 14.7834C2.80416 14.9279 2.61669 15.0001 2.40002 15.0001C2.17498 15.0001 1.98536 14.9279 1.83129 14.7834C1.67714 14.6388 1.60008 14.4611 1.60008 14.2502C1.60008 14.0471 1.67709 13.8712 1.83129 13.7229C1.9854 13.5744 2.17498 13.5001 2.40002 13.5001C2.61669 13.5001 2.80416 13.5744 2.96248 13.7229C3.12083 13.8712 3.20004 14.047 3.20004 14.2502C3.20004 14.4611 3.12101 14.6388 2.96248 14.7834Z" fill="#F2994A"/>
</svg>
