<svg width="16" height="24" viewBox="0 0 16 24" fill="none" xmlns="http://www.w3.org/2000/svg">
<path d="M1.01318 12.8227C0.424654 13.9474 1.09286 14.485 2.61746 15.4034C3.91356 16.1819 5.70409 16.4665 6.85426 16.5804L5.89035 17.482C4.52416 18.7467 3.22807 19.9713 2.32176 20.8198C1.00262 22.049 3.1263 24.0212 4.44448 22.8181L8.01307 19.472C9.37925 20.7498 10.6888 21.9743 11.5817 22.8228C12.9008 24.0306 15.0235 22.0751 13.7188 20.8244L10.1502 17.4867L9.17284 16.5851C10.3374 16.4712 12.1011 16.1697 13.3818 15.4081L13.3808 15.4072C14.9054 14.4841 15.5736 13.9474 14.9938 12.8227C14.6433 12.1842 13.6986 11.6503 12.4409 12.5734C12.4409 12.5734 10.7426 13.8382 8.00347 13.8382C5.26342 13.8382 3.56601 12.5734 3.56601 12.5734C2.30832 11.6457 1.35976 12.1842 1.01318 12.8227Z" fill="white"/>
<path d="M8.00054 12.133C11.3397 12.133 14.0663 9.59614 14.0663 6.47308C14.0663 3.33695 11.3397 0.800049 8.00054 0.800049C4.66044 0.800049 1.93384 3.33695 1.93384 6.47308C1.93384 9.59614 4.66044 12.133 8.00054 12.133ZM8.00054 3.6739C9.6413 3.6739 10.9796 4.92555 10.9796 6.47308C10.9796 8.00754 9.6413 9.25919 8.00054 9.25919C6.35977 9.25919 5.02143 8.00754 5.02143 6.47308C5.02047 4.92461 6.35881 3.6739 8.00054 3.6739Z" fill="white"/>
</svg>
