<svg width="91" height="113" viewBox="0 0 91 113" fill="none" xmlns="http://www.w3.org/2000/svg">
<path d="M85.6436 0H5.35639C2.40255 0 0 2.33031 0 5.19342V107.807C0 110.671 2.40344 113 5.35639 113H87.4682C88.4107 113 89.1754 112.259 89.1754 111.345C89.1754 110.43 88.4107 109.689 87.4682 109.689H87.3508V98.5741C89.4697 97.8818 91 95.9378 91 93.6531V5.19342C91 2.33031 88.5975 0 85.6436 0V0ZM87.5856 93.6531C87.5856 94.6911 86.7142 95.536 85.6436 95.536H81.9935C81.0501 95.536 80.2863 96.2774 80.2863 97.1913C80.2863 98.1051 81.0501 98.8465 81.9935 98.8465H83.9364V102.612H9.00557C8.06304 102.612 7.29835 103.354 7.29835 104.268C7.29835 105.182 8.06304 105.923 9.00557 105.923H83.9364V109.689H5.35639C4.28583 109.689 3.41443 108.845 3.41443 107.807V100.729C3.41443 99.6914 4.28583 98.8465 5.35639 98.8465H74.6952C75.6377 98.8465 76.4024 98.106 76.4024 97.1913C76.4024 96.2774 75.6377 95.536 74.6952 95.536H10.7128V12.2706C10.7128 11.3567 9.94899 10.6153 9.00557 10.6153C8.06304 10.6153 7.29835 11.3567 7.29835 12.2706V95.536H5.35639C4.67173 95.536 4.01729 95.6627 3.41443 95.8912V5.19342C3.41443 4.15543 4.28583 3.31055 5.35639 3.31055H7.29835V5.19342C7.29835 6.10813 8.06304 6.84869 9.00557 6.84869C9.94899 6.84869 10.7128 6.10813 10.7128 5.19342V3.31055H85.6436C86.7142 3.31055 87.5856 4.15543 87.5856 5.19342V93.6531Z" fill="#2E8B42"/>
<path d="M63.7468 35.3841C63.3751 35.3841 63.0025 35.4057 62.6184 35.4513C60.4684 30.1338 55.1378 26.5379 49.1492 26.5379C43.1615 26.5379 37.8309 30.1338 35.6808 35.4513C35.2967 35.4057 34.9233 35.3841 34.5516 35.3841C28.5799 35.3841 23.7214 40.0947 23.7214 45.8847C23.7214 51.1126 27.6809 55.4595 32.8444 56.2561V63.5772C32.8444 66.4403 35.2478 68.7706 38.2008 68.7706H60.0976C63.0515 68.7706 65.454 66.4403 65.454 63.5772V56.2561C70.6183 55.4595 74.5778 51.1126 74.5778 45.8847C74.5778 40.0947 69.7194 35.3841 63.7468 35.3841ZM60.0976 65.4601H38.2017C37.1302 65.4601 36.2588 64.6152 36.2588 63.5772V61.6935H43.6701C43.6719 61.6935 43.6736 61.6943 43.6754 61.6943C43.6772 61.6943 43.679 61.6935 43.6808 61.6935H54.6185C54.6203 61.6935 54.6221 61.6943 54.6238 61.6943C54.6256 61.6943 54.6274 61.6935 54.6292 61.6935H62.0405V63.5772C62.0396 64.6152 61.1682 65.4601 60.0976 65.4601ZM63.7468 53.0757C62.8043 53.0757 62.0396 53.8171 62.0396 54.731V58.3829H56.9917L59.8922 49.9471C60.191 49.0798 59.7073 48.1418 58.8128 47.853C57.9182 47.5642 56.9517 48.0323 56.6529 48.8996L53.3932 58.3829H50.8564V47.6538C50.8564 46.74 50.0917 45.9985 49.1492 45.9985C48.2067 45.9985 47.442 46.74 47.442 47.6538V58.3829H44.906L41.6454 48.8996C41.3476 48.0323 40.3801 47.5633 39.4865 47.853C38.5911 48.1418 38.1083 49.0798 38.4062 49.9471L41.3067 58.3829H36.2588V54.731C36.2588 53.8171 35.495 53.0757 34.5516 53.0757C30.4623 53.0757 27.1359 49.8496 27.1359 45.8847C27.1359 41.9198 30.4623 38.6938 34.5516 38.6938C35.1091 38.6938 35.6969 38.7766 36.4029 38.9533C37.3098 39.18 38.2346 38.6576 38.4782 37.7817C39.7773 33.1107 44.1654 29.8484 49.1492 29.8484C54.1339 29.8484 58.522 33.1107 59.8211 37.7817C60.0638 38.6576 60.9903 39.18 61.8964 38.9533C62.6015 38.7766 63.1893 38.6938 63.7468 38.6938C67.8361 38.6938 71.1634 41.9198 71.1634 45.8847C71.1634 49.8496 67.8361 53.0757 63.7468 53.0757Z" fill="#2E8B42"/>
<path d="M63.7468 74.3054H34.5516C33.6091 74.3054 32.8444 75.0468 32.8444 75.9607C32.8444 76.8754 33.6091 77.616 34.5516 77.616H63.7468C64.6902 77.616 65.454 76.8754 65.454 75.9607C65.454 75.0468 64.6902 74.3054 63.7468 74.3054Z" fill="#2E8B42"/>
<path d="M58.273 83.1516H40.0262C39.0828 83.1516 38.319 83.893 38.319 84.8069C38.319 85.7207 39.0828 86.4622 40.0262 86.4622H58.273C59.2155 86.4622 59.9802 85.7207 59.9802 84.8069C59.9802 83.893 59.2155 83.1516 58.273 83.1516Z" fill="#2E8B42"/>
<path d="M34.5445 21.0021H63.7539C66.7042 21.0021 69.1032 18.6753 69.1032 15.8018C69.1032 12.9422 66.7042 10.6153 63.7539 10.6153H34.5445C31.5951 10.6153 29.1952 12.9422 29.1952 15.8156C29.1952 18.6753 31.5951 21.0021 34.5445 21.0021ZM34.5445 13.9258H63.7539C64.8209 13.9258 65.6887 14.7673 65.6887 15.8156C65.6887 16.8502 64.8209 17.6916 63.7539 17.6916H34.5445C33.4775 17.6916 32.6096 16.8502 32.6096 15.8018C32.6096 14.7673 33.4775 13.9258 34.5445 13.9258Z" fill="#2E8B42"/>
<path d="M25.3113 15.8087C25.3113 14.8949 24.5467 14.1534 23.6041 14.1534H21.7795C20.8361 14.1534 20.0723 14.8949 20.0723 15.8087C20.0723 16.7226 20.8361 17.464 21.7795 17.464H23.6041C24.5467 17.464 25.3113 16.7226 25.3113 15.8087Z" fill="#2E8B42"/>
<path d="M76.5197 14.1534H74.6951C73.7526 14.1534 72.9879 14.8949 72.9879 15.8087C72.9879 16.7226 73.7526 17.464 74.6951 17.464H76.5197C77.4631 17.464 78.2269 16.7226 78.2269 15.8087C78.2269 14.8949 77.4631 14.1534 76.5197 14.1534Z" fill="#2E8B42"/>
</svg>
