<svg width="117" height="103" viewBox="0 0 117 103" fill="none" xmlns="http://www.w3.org/2000/svg">
<path d="M115.724 49.0277C114.842 48.081 113.596 47.5387 112.308 47.5387H111.925C113.662 44.5412 114.606 41.1392 114.606 37.6342C114.606 29.7332 109.891 22.6204 102.734 19.4949C102.566 8.71889 93.7807 0 82.9923 0C72.2047 0 63.4221 8.71353 63.248 19.4851C62.8454 19.3902 62.4294 19.3348 62.0072 19.3348C60.2505 19.3348 58.5965 20.1947 57.5869 21.6326L57.095 22.3341C56.6898 22.9077 55.9292 23.1162 55.2928 22.8191L54.518 22.4585C52.9237 21.714 51.0644 21.8008 49.5406 22.6804C48.0178 23.56 47.0154 25.1348 46.8574 26.8877L46.7806 27.7414C46.7529 28.0465 46.6181 28.4724 46.4423 28.9279C45.9897 28.7122 45.6657 28.2684 45.6184 27.7396L45.5416 26.8904C45.3916 25.2261 44.5044 23.8472 43.2332 22.9739L49.4523 14.1279C50.6636 12.4028 51.1331 10.3009 50.7698 8.21334C50.4083 6.1213 49.2621 4.30129 47.5429 3.08705C43.9786 0.571775 39.0387 1.4272 36.5286 5.00102L25.1475 21.1924C24.7672 21.7328 24.4869 22.3189 24.2557 22.9211C24.0718 22.9292 23.8764 22.9113 23.6746 22.8182L22.9007 22.4576C21.3056 21.7167 19.4426 21.8017 17.9233 22.6813C16.4014 23.5609 15.3998 25.1339 15.2419 26.8868L15.1651 27.7405C15.1017 28.4438 14.5465 29.0003 13.8449 29.0639L12.9951 29.1408C11.2464 29.2992 9.67535 30.3059 8.79789 31.8288C7.91864 33.3553 7.83562 35.2201 8.57473 36.8218L8.93268 37.5949C9.22903 38.2364 9.02551 38.997 8.44887 39.4032L7.75082 39.8963C6.31457 40.9128 5.45674 42.5708 5.45674 44.3318C5.45674 45.5058 5.86825 46.6153 6.54755 47.5361H4.68996C3.40189 47.5361 2.15665 48.0792 1.27383 49.0259C0.382086 49.9806 -0.0776232 51.2799 0.0107482 52.5854C1.181 69.9113 12.1747 78.6105 28.3244 86.3416C30.1266 87.2051 31.6146 88.6394 32.518 90.3869C33.399 92.0942 33.2589 94.2963 32.1342 96.1709C31.287 97.5811 31.2629 99.2785 32.0708 100.713C32.8795 102.146 34.3417 103 35.9841 103H81.0169C82.6584 103 84.1206 102.145 84.9293 100.713C85.7372 99.2785 85.7139 97.5811 84.8463 96.1351C83.7412 94.2945 83.6037 92.0942 84.483 90.3887C85.3837 88.6421 86.8717 87.2051 88.6757 86.3416C104.822 78.6105 115.818 69.9131 116.99 52.5872C117.076 51.2799 116.614 49.9824 115.724 49.0277ZM110.656 37.6342C110.656 41.2394 109.422 44.7237 107.163 47.5387H96.8246V39.6153C96.8246 38.5201 95.9409 37.6342 94.8483 37.6342C93.7557 37.6342 92.872 38.5201 92.872 39.6153V47.5387H85.8951C86.0549 47.3204 86.1933 47.0904 86.3183 46.8533C86.3236 46.8435 86.3316 46.8336 86.3379 46.8229C86.5111 46.4865 86.636 46.1259 86.7369 45.7599C86.7619 45.6686 86.7842 45.5773 86.8039 45.4825C86.8851 45.1058 86.9422 44.7237 86.9422 44.3318C86.9422 42.569 86.0844 40.9128 84.6499 39.9025L84.1956 39.5795C84.3536 39.5697 84.5053 39.5437 84.6615 39.5321C84.899 39.5124 85.1364 39.4883 85.3712 39.4587C85.7604 39.4104 86.1451 39.3513 86.5271 39.2825C86.7521 39.2404 86.9797 39.2028 87.2029 39.1536C87.6144 39.0641 88.0187 38.9532 88.4204 38.8386C88.5998 38.7867 88.7819 38.7456 88.9596 38.6883C89.5228 38.5076 90.0745 38.3071 90.6136 38.0798C90.7636 38.0163 90.9064 37.9412 91.0519 37.874C91.4429 37.6978 91.833 37.5161 92.2097 37.3139C92.4212 37.2003 92.6274 37.0777 92.8327 36.9569C93.1345 36.7806 93.4353 36.6025 93.7272 36.4102C93.945 36.2679 94.1583 36.1211 94.3699 35.9708C94.6368 35.7802 94.8992 35.5825 95.1563 35.3802C95.3678 35.2138 95.5767 35.0501 95.7802 34.8756C96.0239 34.6671 96.2551 34.4497 96.4881 34.2313C96.6872 34.0452 96.8889 33.8609 97.0808 33.6667C97.3004 33.443 97.5039 33.2059 97.711 32.9715C98.1047 32.5303 98.476 32.0722 98.8295 31.5953C98.9536 31.427 99.0866 31.2642 99.2071 31.0897C99.4222 30.7792 99.6204 30.4562 99.8176 30.1349C99.9158 29.973 100.018 29.8119 100.114 29.6464C100.313 29.2992 100.497 28.9449 100.675 28.5861C100.744 28.4438 100.813 28.3033 100.88 28.1583C101.064 27.7646 101.236 27.3664 101.394 26.9584C101.427 26.8707 101.459 26.7804 101.49 26.6927C101.848 25.7281 102.153 24.7384 102.358 23.7121C107.406 26.4475 110.656 31.7697 110.656 37.6342ZM82.9923 3.96126C91.708 3.96126 98.8 11.0704 98.8 19.8081C98.8 20.107 98.775 20.4005 98.7572 20.6957C98.7572 20.6957 98.7509 20.7074 98.7509 20.7154C98.6349 22.7967 98.1172 24.7635 97.279 26.5486C97.2709 26.5665 97.2629 26.5844 97.2549 26.6023C97.0612 27.0121 96.8478 27.4085 96.6211 27.7986C96.5934 27.8461 96.5675 27.8935 96.5399 27.9409C96.3283 28.2961 96.0989 28.6406 95.8606 28.9753C95.8088 29.0487 95.7597 29.122 95.7079 29.1927C95.4848 29.4979 95.2455 29.7913 95.001 30.0786C94.9242 30.1698 94.8483 30.2629 94.7698 30.3524C94.5386 30.6137 94.2931 30.8615 94.0441 31.1067C93.9414 31.2096 93.8405 31.3125 93.7343 31.4136C93.4969 31.6355 93.2478 31.844 92.997 32.0516C92.8684 32.159 92.7417 32.2673 92.6096 32.3684C92.3668 32.5545 92.116 32.729 91.8633 32.9035C91.7107 33.0081 91.5607 33.1155 91.4027 33.2139C91.1555 33.3705 90.9011 33.511 90.6458 33.6542C90.4726 33.7508 90.2985 33.8519 90.12 33.9432C89.871 34.0703 89.6148 34.183 89.3595 34.2958C89.164 34.3834 88.9703 34.4738 88.7703 34.5517C88.5204 34.6501 88.2624 34.7351 88.0062 34.821C87.7902 34.8944 87.5796 34.9695 87.36 35.0322C87.1109 35.1055 86.8538 35.161 86.5994 35.221C86.3638 35.2764 86.1308 35.3355 85.8916 35.3811C85.6452 35.4268 85.3935 35.4572 85.1453 35.4921C84.89 35.5279 84.6374 35.5655 84.3803 35.5896C84.3312 35.5932 84.2795 35.5932 84.2286 35.5977V35.595C84.2322 35.5699 84.2322 35.5458 84.2366 35.5198C84.3009 35.1619 84.3232 34.7986 84.3152 34.4362C84.3134 34.3199 84.3 34.2063 84.2902 34.0899C84.2661 33.8045 84.2188 33.5253 84.1518 33.2479C84.1242 33.137 84.1027 33.026 84.067 32.9169C83.9501 32.5446 83.8055 32.1778 83.6064 31.8333C82.7272 30.3085 81.1579 29.3037 79.4092 29.1462L78.5577 29.0684C78.0337 29.0209 77.5909 28.6979 77.374 28.2425L81.5962 24.0119C82.3692 23.237 82.3692 21.9851 81.5962 21.2111C80.8241 20.4363 79.5753 20.4363 78.8031 21.2111L75.9833 24.0378C75.5664 23.509 75.0764 23.033 74.4792 22.6867C74.0802 22.4549 73.6553 22.2867 73.2206 22.165C73.0742 22.1238 72.926 22.1194 72.7778 22.0925C72.4815 22.0344 72.1896 21.9816 71.8887 21.9753C71.8512 21.9753 71.8138 21.9592 71.7763 21.9592C71.5486 21.9592 71.3255 22.003 71.1005 22.0326C70.9604 22.0505 70.8203 22.0505 70.681 22.0782C70.2784 22.1614 69.883 22.284 69.5018 22.4603L68.7315 22.8191C68.5333 22.9104 68.3235 22.9462 68.1129 22.9381C68.1004 22.9381 68.0906 22.9354 68.079 22.9354C67.8719 22.922 67.6639 22.8647 67.4746 22.7591C67.2827 21.757 67.1854 20.7664 67.1854 19.8081C67.1845 11.0704 74.2748 3.96126 82.9923 3.96126ZM50.7162 28.0993L50.7939 27.2457C50.835 26.766 51.1001 26.3517 51.5169 26.1128C51.9311 25.873 52.4212 25.8471 52.8559 26.0538L53.6352 26.4162C56.0042 27.5132 58.8223 26.7544 60.3255 24.6176L60.8182 23.9161C61.3726 23.126 62.649 23.1314 63.2007 23.9143L63.6934 24.615C64.7012 26.0475 66.2972 26.8412 67.9558 26.8913H68.0129C68.2521 26.8949 68.4931 26.8913 68.7324 26.8636C68.8448 26.8519 68.9555 26.826 69.068 26.8063C69.2296 26.7768 69.3902 26.7544 69.55 26.7115C69.8348 26.6345 70.1151 26.537 70.3882 26.4099L71.1603 26.0493C71.5968 25.848 72.0869 25.8695 72.5002 26.1084C72.9153 26.35 73.1804 26.7625 73.2215 27.2439L73.2982 28.093C73.5357 30.704 75.5968 32.7719 78.1988 33.0055L79.0486 33.0833C79.5288 33.1245 79.9421 33.3902 80.1814 33.8081C80.4224 34.2233 80.4438 34.7145 80.2421 35.1485L79.8788 35.9332C79.8627 35.969 79.8573 36.0003 79.8431 36.0361C79.1397 37.6521 79.286 39.4489 80.1198 40.9029C80.1314 40.9226 80.1439 40.9441 80.1555 40.9638C80.2617 41.1445 80.3751 41.3163 80.5027 41.4854C80.5723 41.5785 80.6491 41.6635 80.725 41.753C80.8214 41.8639 80.9142 41.9785 81.0204 42.0814C81.2222 42.2818 81.4382 42.4697 81.6748 42.6361L82.3764 43.1337C82.7673 43.4146 82.9923 43.8504 82.9923 44.3318C82.9923 44.8132 82.7673 45.2472 82.3764 45.5246L81.673 46.0194C81.6667 46.0238 81.6631 46.0292 81.6551 46.0355C81.398 46.2198 81.1633 46.4274 80.9437 46.6538C80.8562 46.7424 80.7812 46.8435 80.7 46.9383C80.5822 47.0788 80.4652 47.222 80.3626 47.3741C80.3233 47.4323 80.2715 47.4815 80.234 47.5405H54.2796C54.4394 47.3231 54.5778 47.0913 54.7045 46.8533C54.7099 46.8435 54.7161 46.8354 54.7224 46.8256C54.8956 46.4874 55.0223 46.1267 55.1232 45.7581C55.1491 45.6668 55.1687 45.5782 55.1884 45.487C55.2714 45.112 55.3267 44.73 55.3285 44.3398V44.3363C55.3285 44.0821 55.2732 43.8405 55.2401 43.5936C55.2142 43.411 55.2178 43.2231 55.1723 43.0442C55.0286 42.4545 54.7536 41.914 54.426 41.4067C54.0547 40.834 53.6057 40.3088 53.0344 39.9043L52.3355 39.4095C51.7597 39.0033 51.5589 38.2445 51.8535 37.6074L52.215 36.8289C52.3908 36.4486 52.5113 36.0504 52.5943 35.6469C52.6202 35.5252 52.6202 35.4053 52.6363 35.2836C52.6756 34.9991 52.705 34.7154 52.6988 34.43C52.6952 34.2814 52.672 34.1347 52.6559 33.9862C52.6283 33.7311 52.5943 33.477 52.531 33.2283C52.4899 33.0654 52.4346 32.9106 52.3792 32.7522C52.3319 32.6216 52.3078 32.4847 52.2525 32.3567C52.2185 32.2789 52.1596 32.2216 52.1221 32.1482C52.073 32.0471 52.0472 31.938 51.9918 31.8395C51.8874 31.6588 51.7446 31.5103 51.6205 31.3447C51.5169 31.206 51.4259 31.0611 51.3116 30.9322C51.0724 30.6647 50.8001 30.4374 50.5154 30.2253C50.4306 30.1618 50.3672 30.0723 50.2788 30.015C50.4833 29.4128 50.6573 28.7507 50.7162 28.0993ZM39.7618 7.28364C41.0168 5.49673 43.4885 5.06902 45.2685 6.3271C46.1263 6.93288 46.6994 7.84378 46.8788 8.8898C47.0591 9.93761 46.8279 10.9899 46.2236 11.8471L38.5147 22.8128C38.5147 22.8128 38.513 22.8128 38.513 22.8155L34.8397 28.0384C34.2345 28.9001 33.3285 29.4746 32.285 29.6544C31.2433 29.8289 30.1918 29.6034 29.3339 28.995C29.3304 28.9932 29.3286 28.9887 29.3241 28.9869C29.0421 28.7865 28.8046 28.5431 28.5895 28.2854C28.5341 28.2201 28.4833 28.1512 28.4315 28.0814C28.244 27.8219 28.0816 27.5472 27.9611 27.2519C27.953 27.2322 27.9414 27.2161 27.9334 27.1964C27.8129 26.8833 27.7459 26.5522 27.7067 26.2157C27.6968 26.1307 27.6924 26.0457 27.687 25.9598C27.6692 25.6234 27.679 25.2807 27.7504 24.938C27.8593 24.419 28.0664 23.9215 28.3779 23.4786L39.7618 7.28364ZM10.7242 46.0176L10.0244 45.5237C9.63161 45.2463 9.40667 44.8132 9.40667 44.33C9.40667 43.8468 9.63161 43.4128 10.0244 43.1337L10.7197 42.6415C12.8603 41.1347 13.6155 38.3125 12.5166 35.927L12.1587 35.1548C11.9552 34.7172 11.9793 34.226 12.2176 33.8081C12.4586 33.392 12.8701 33.1263 13.3504 33.0842L14.1984 33.0072C16.8022 32.7737 18.8633 30.7076 19.1007 28.0975L19.1775 27.2439C19.2195 26.7643 19.4837 26.3517 19.8988 26.1102C20.312 25.8703 20.8039 25.8489 21.2386 26.0511L22.017 26.4135C22.582 26.6757 23.181 26.8278 23.7898 26.8752C23.7951 26.9173 23.813 26.9584 23.821 27.0005C23.8273 27.0363 23.8228 27.0712 23.829 27.1052C23.8683 27.3307 23.9513 27.5391 24.0094 27.7584C24.0763 28.0143 24.1272 28.2738 24.2182 28.5234C24.3271 28.816 24.4771 29.0871 24.6172 29.3645C24.7128 29.5515 24.7851 29.743 24.8957 29.9211C25.0895 30.2361 25.3269 30.5215 25.5634 30.8069C25.6643 30.9277 25.7438 31.0602 25.85 31.1756C26.2142 31.5621 26.615 31.9183 27.0577 32.2288C27.4469 32.5044 27.862 32.7299 28.2842 32.9285C28.419 32.9893 28.5556 33.0395 28.6939 33.0923C28.9956 33.2139 29.3018 33.3168 29.616 33.3974C29.774 33.4394 29.9302 33.4788 30.0927 33.5083C30.4265 33.5737 30.764 33.6112 31.1058 33.6336C31.2344 33.6417 31.3593 33.6613 31.487 33.6631C31.5209 33.6631 31.5522 33.6712 31.5861 33.6712C32.0422 33.6712 32.501 33.6318 32.959 33.5522C35.0442 33.188 36.8598 32.0391 38.0711 30.3157L40.9775 26.1799C41.3078 26.4001 41.5631 26.7562 41.606 27.2439L41.6827 28.093C41.9202 30.704 43.9813 32.7701 46.5833 33.0055L47.4331 33.0824C47.6188 33.0985 47.7812 33.1755 47.9392 33.2533C48.016 33.2927 48.0937 33.3285 48.1624 33.3813C48.2686 33.4609 48.3561 33.5638 48.4364 33.6712C48.4882 33.7383 48.5453 33.8 48.5855 33.877C48.6801 34.0631 48.7471 34.2591 48.7569 34.4613C48.7569 34.4693 48.7551 34.481 48.7551 34.489C48.7631 34.7109 48.7212 34.9364 48.6248 35.1458L48.2624 35.9243C47.85 36.8182 47.6991 37.772 47.7848 38.6973C47.7866 38.7098 47.7902 38.7214 47.7902 38.7348C47.8205 39.0301 47.8696 39.3209 47.9464 39.6082C48.2642 40.8009 48.9881 41.8827 50.0548 42.6353L50.535 42.9735L50.7546 43.1283C51.1492 43.4155 51.375 43.8495 51.375 44.3309C51.375 44.5725 51.3197 44.7998 51.2125 45.0047C51.1831 45.0637 51.1197 45.0995 51.0804 45.155C50.9858 45.2892 50.8948 45.4261 50.7546 45.5254L50.7287 45.5424L50.053 46.0185C49.7825 46.2109 49.5335 46.4328 49.3041 46.6699C49.2336 46.7433 49.1764 46.8265 49.1104 46.9016C48.9604 47.0761 48.8158 47.2542 48.6873 47.4466C48.6658 47.4779 48.6364 47.5056 48.6167 47.5369H12.1649C11.7873 46.9446 11.2991 46.4229 10.7242 46.0176ZM86.9717 82.7669C84.3973 83.999 82.2675 86.0588 80.9705 88.5678C79.4628 91.4875 79.6511 95.1696 81.4784 98.2119C81.6132 98.4383 81.5578 98.6361 81.4846 98.7614C81.4141 98.8857 81.2748 99.0387 81.0124 99.0387H35.9832C35.7226 99.0387 35.5824 98.8884 35.511 98.7614C35.4405 98.6361 35.3825 98.4383 35.5387 98.177C37.3472 95.1678 37.5346 91.4858 36.027 88.5643C34.7326 86.0543 32.6001 83.9945 30.0275 82.7642C14.7036 75.4313 4.99792 67.7799 3.95443 52.3196C3.93479 52.0243 4.07672 51.8248 4.16241 51.7318C4.2606 51.6244 4.43288 51.5 4.69175 51.5H112.309C112.566 51.5 112.739 51.6244 112.839 51.7318C112.924 51.8248 113.066 52.0226 113.045 52.3196C112 67.7799 102.294 75.4313 86.9717 82.7669Z" fill="#2E8B42"/>
<path d="M73.1125 85.1729H55.9078C54.817 85.1729 53.9315 86.0587 53.9315 87.1539C53.9315 88.2492 54.817 89.135 55.9078 89.135H73.1125C74.2033 89.135 75.0888 88.2492 75.0888 87.1539C75.0888 86.0587 74.2033 85.1729 73.1125 85.1729Z" fill="#2E8B42"/>
<path d="M43.4725 89.135H50.1628C51.2536 89.135 52.1391 88.2492 52.1391 87.1539C52.1391 86.0587 51.2536 85.1729 50.1628 85.1729H43.4725C42.3817 85.1729 41.4962 86.0587 41.4962 87.1539C41.497 88.2492 42.3799 89.135 43.4725 89.135Z" fill="#2E8B42"/>
<path d="M73.1125 91.1152H43.4725C42.3817 91.1152 41.4962 92.0011 41.4962 93.0963C41.4962 94.1915 42.3817 95.0774 43.4725 95.0774H73.1125C74.2033 95.0774 75.0888 94.1915 75.0888 93.0963C75.0888 92.0011 74.2033 91.1152 73.1125 91.1152Z" fill="#2E8B42"/>
<path d="M78.8013 18.4078C79.1869 18.7943 79.6922 18.9876 80.1983 18.9876C80.7044 18.9876 81.2097 18.7934 81.5953 18.4078C82.3683 17.6329 82.3683 16.381 81.5953 15.607L76.0056 10.0056C75.2325 9.23073 73.9837 9.23073 73.2116 10.0056C72.4386 10.7796 72.4386 12.0314 73.2116 12.8054L78.8013 18.4078Z" fill="#2E8B42"/>
<path d="M89.9772 29.6106C90.3628 29.9971 90.8689 30.1913 91.375 30.1913C91.8803 30.1913 92.3864 29.9971 92.772 29.6106C93.5441 28.8357 93.5424 27.5838 92.772 26.8098L87.1814 21.2084C86.4093 20.4335 85.1605 20.4335 84.3874 21.2084C83.6153 21.9824 83.6153 23.2342 84.3874 24.0091L89.9772 29.6106Z" fill="#2E8B42"/>
<path d="M85.7862 18.9876C86.2923 18.9876 86.7984 18.7934 87.184 18.4078L92.7737 12.8054C93.5441 12.0314 93.5468 10.7796 92.7737 10.0056C92.0007 9.23073 90.7519 9.23073 89.9798 10.0056L84.3901 15.607C83.617 16.381 83.617 17.6329 84.3901 18.4078C84.7748 18.7934 85.2809 18.9876 85.7862 18.9876Z" fill="#2E8B42"/>
<path d="M96.8245 35.654C96.8245 36.7492 97.7073 37.6342 98.7999 37.6342H106.704C107.797 37.6342 108.681 36.7492 108.681 35.654C108.681 34.5588 107.797 33.6729 106.704 33.6729H98.7999C97.7073 33.6729 96.8245 34.5588 96.8245 35.654Z" fill="#2E8B42"/>
<path d="M60.2683 36.6445C60.7745 36.6445 61.2806 36.4504 61.6653 36.0638L64.6298 33.0931C65.4028 32.3182 65.4028 31.0664 64.6298 30.2924C63.8567 29.5175 62.6079 29.5175 61.8358 30.2924L58.8722 33.2631C58.0992 34.038 58.0992 35.2898 58.8722 36.0638C59.257 36.4504 59.7622 36.6445 60.2683 36.6445Z" fill="#2E8B42"/>
<path d="M69.7392 41.0156C70.1248 41.4022 70.6309 41.5964 71.1362 41.5964C71.6423 41.5964 72.1475 41.4022 72.5332 41.0156C73.3062 40.2416 73.3062 38.9898 72.5332 38.2149L70.5578 36.2348C69.7847 35.4599 68.5359 35.4599 67.7638 36.2348C66.9908 37.0087 66.9908 38.2606 67.7638 39.0355L69.7392 41.0156Z" fill="#2E8B42"/>
<path d="M61.8358 40.196L59.8595 42.1761C59.0865 42.951 59.0865 44.2029 59.8595 44.9769C60.2451 45.3634 60.7503 45.5576 61.2565 45.5576C61.7626 45.5576 62.2678 45.3634 62.6535 44.9769L64.6298 42.9967C65.4028 42.2218 65.4028 40.97 64.6298 40.196C63.8567 39.4211 62.6061 39.4211 61.8358 40.196Z" fill="#2E8B42"/>
</svg>
