<svg width="109" height="109" viewBox="0 0 109 109" fill="none" xmlns="http://www.w3.org/2000/svg">
<path d="M104.04 5.81745C100.534 2.0661 95.7771 0 90.6445 0H18.3514C7.86799 0 -0.654875 9.1379 0.0546895 19.5932L3.25401 66.7429C3.39324 68.7967 6.57936 68.5814 6.44013 66.5266L3.24081 19.3771C2.65451 10.7401 9.69438 3.19336 18.3514 3.19336H90.6445C99.3015 3.19336 106.341 10.7401 105.755 19.3771L100.849 91.6769C100.312 99.6 93.6742 105.807 85.7387 105.807H23.2574C15.3217 105.807 8.68442 99.6 8.14666 91.6767L6.44013 66.5266C6.30047 64.4724 3.11478 64.6883 3.25401 66.7429L4.96054 91.893C5.61156 101.486 13.6484 109 23.2572 109H85.7385C95.3475 109 103.384 101.486 104.035 91.893L108.941 19.5932C109.289 14.4644 107.548 9.5722 104.04 5.81745Z" fill="#2E8B42"/>
<path d="M70.572 37.1494C70.572 38.0312 71.2869 38.7461 72.1687 38.7461H78.5554C79.4372 38.7461 80.1521 38.0312 80.1521 37.1494C80.1521 23.0041 68.644 11.4961 54.4987 11.4961C40.3534 11.4961 28.8454 23.0041 28.8454 37.1494C28.8454 38.0312 29.5603 38.7461 30.4421 38.7461H63.4401C65.4994 38.7461 65.4994 35.5527 63.4401 35.5527H55.7065L48.7594 23.1691C47.752 21.3732 44.967 22.9356 45.9744 24.7315L52.045 35.5527H32.095C32.4407 30.652 34.3661 26.1804 37.3634 22.645L39.5549 24.8362C41.0106 26.2926 43.2692 24.0343 41.8128 22.5783L39.5956 20.3609C41.7211 18.4719 44.2065 16.9802 46.9345 16.0015L47.7316 18.9758C48.2628 20.958 51.3495 20.1395 50.8162 18.1491L50.0102 15.1414C52.8105 14.5711 55.7178 14.5417 58.5294 15.0533L57.7428 17.9886C57.2097 19.9789 60.2962 20.7975 60.8273 18.8153L61.6223 15.8489C64.3596 16.7666 66.8634 18.1973 69.0185 20.0277L66.9064 22.1398C65.4503 23.5957 67.7084 25.8539 69.1643 24.3977L71.3009 22.2611C74.4883 25.8543 76.544 30.473 76.9025 35.5527H72.1687C71.2869 35.5527 70.572 36.2676 70.572 37.1494Z" fill="#2E8B42"/>
<path d="M16.072 10.2188C12.9612 10.2188 10.4304 12.7496 10.4304 15.8604C10.4304 18.9711 12.9612 21.502 16.072 21.502C19.1827 21.502 21.7136 18.9711 21.7136 15.8604C21.7136 12.7496 19.183 10.2188 16.072 10.2188ZM16.072 18.3086C14.7221 18.3086 13.6237 17.2103 13.6237 15.8604C13.6237 14.5104 14.7221 13.4121 16.072 13.4121C17.4219 13.4121 18.5202 14.5104 18.5202 15.8604C18.5202 17.2103 17.4221 18.3086 16.072 18.3086Z" fill="#2E8B42"/>
<path d="M92.9255 21.502C96.0362 21.502 98.5671 18.9711 98.5671 15.8604C98.5671 12.7496 96.0364 10.2188 92.9255 10.2188C89.8145 10.2188 87.2839 12.7496 87.2839 15.8604C87.2839 18.9711 89.8147 21.502 92.9255 21.502ZM92.9255 13.4121C94.2754 13.4121 95.3737 14.5104 95.3737 15.8604C95.3737 17.2103 94.2754 18.3086 92.9255 18.3086C91.5755 18.3086 90.4772 17.2103 90.4772 15.8604C90.4772 14.5104 91.5755 13.4121 92.9255 13.4121Z" fill="#2E8B42"/>
<path d="M15.3268 92.2881C15.3268 95.3988 17.8577 97.9297 20.9684 97.9297C24.0792 97.9297 26.61 95.3988 26.61 92.2881C26.61 89.1773 24.0792 86.6465 20.9684 86.6465C17.8577 86.6465 15.3268 89.1773 15.3268 92.2881ZM20.9684 89.8398C22.3184 89.8398 23.4167 90.9381 23.4167 92.2881C23.4167 93.638 22.3184 94.7363 20.9684 94.7363C19.6185 94.7363 18.5202 93.638 18.5202 92.2881C18.5202 90.9381 19.6185 89.8398 20.9684 89.8398Z" fill="#2E8B42"/>
<path d="M82.3874 92.2881C82.3874 95.3988 84.9183 97.9297 88.029 97.9297C91.1398 97.9297 93.6706 95.3988 93.6706 92.2881C93.6706 89.1773 91.1398 86.6465 88.029 86.6465C84.9183 86.6465 82.3874 89.1773 82.3874 92.2881ZM88.029 89.8398C89.379 89.8398 90.4773 90.9381 90.4773 92.2881C90.4773 93.638 89.379 94.7363 88.029 94.7363C86.6791 94.7363 85.5808 93.638 85.5808 92.2881C85.5808 90.9381 86.6791 89.8398 88.029 89.8398Z" fill="#2E8B42"/>
</svg>
