<svg width="109" height="109" viewBox="0 0 109 109" fill="none" xmlns="http://www.w3.org/2000/svg">
<path d="M100.294 72.5821C97.8286 74.299 94.9959 75.4151 92.0223 75.8409C89.0486 76.2668 86.0165 75.9907 83.1687 75.0346C82.9107 74.9427 82.6343 74.9143 82.363 74.952C82.0918 74.9896 81.8336 75.0922 81.6103 75.2509L73.9463 80.6855L75.9185 83.4633L82.8724 78.5243C86.1225 79.4736 89.5434 79.686 92.886 79.146C96.2286 78.6059 99.4086 77.327 102.194 75.4024C103.198 74.7243 104.149 73.9717 105.04 73.1509L102.731 70.6473C101.969 71.353 101.154 71.9997 100.294 72.5821Z" fill="#2E8B42"/>
<path d="M83.1432 47.1646C80.7055 48.7221 78.7528 50.9312 77.5063 53.5416C76.2598 56.1519 75.7694 59.0593 76.0905 61.9341L54.5 75.7737L32.9061 61.9426C33.2342 59.0668 32.7461 56.1568 31.4976 53.5454C30.2492 50.9341 28.2908 48.7269 25.8466 47.1765C22.6022 44.9403 18.6569 43.9564 14.7422 44.4072C12.8957 44.588 11.1119 45.1742 9.51811 46.124C7.92433 47.0739 6.55991 48.3639 5.52228 49.9019C4.48465 51.44 3.7994 53.1882 3.51547 55.0217C3.23153 56.8552 3.35591 58.7287 3.87972 60.5086C4.92904 64.3052 7.31992 67.5923 10.6088 69.76C12.9636 71.448 15.7466 72.4382 18.6385 72.6168C21.5304 72.7954 24.4141 72.1553 26.9588 70.7699L43.7192 82.6696L27.7695 92.8969C27.0155 93.3759 26.3654 94.0014 25.8577 94.7363C25.3499 95.4712 24.9949 96.3005 24.8135 97.1751C24.6321 98.0498 24.6281 98.9519 24.8018 99.8281C24.9755 100.704 25.3232 101.537 25.8245 102.276C26.3238 103.014 26.9655 103.644 27.7119 104.131C28.4583 104.617 29.2944 104.949 30.171 105.108C31.0476 105.266 31.947 105.248 32.8165 105.054C33.686 104.861 34.508 104.495 35.2342 103.979L54.5 90.3167L73.7658 103.989C74.4928 104.521 75.3197 104.901 76.197 105.106C77.0743 105.31 77.9838 105.336 78.8711 105.18C79.7585 105.025 80.6054 104.692 81.361 104.202C82.1167 103.712 82.7656 103.074 83.2689 102.327C83.7722 101.58 84.1195 100.739 84.2899 99.854C84.4604 98.9695 84.4506 98.0597 84.2611 97.179C84.0716 96.2983 83.7062 95.465 83.1869 94.7289C82.6677 93.9928 82.0051 93.3691 81.2391 92.8952L65.2706 82.6765L82.0429 70.7716C84.5873 72.1575 87.4708 72.7982 90.3627 72.6202C93.2546 72.4421 96.0378 71.4526 98.3929 69.7651C105.393 65.0406 107.678 56.1264 103.484 49.893C99.2888 43.6596 90.1583 42.4401 83.1432 47.1646ZM33.262 101.208C32.5343 101.698 31.644 101.884 30.781 101.726C29.9181 101.569 29.1509 101.08 28.6432 100.365C28.3974 100.003 28.2269 99.5943 28.1419 99.1646C28.0568 98.735 28.0589 98.2926 28.148 97.8637C28.2371 97.4349 28.4114 97.0283 28.6606 96.6681C28.9098 96.3078 29.2287 96.0013 29.5986 95.7667L46.7133 84.7917L51.5485 88.2218L33.262 101.208ZM80.8474 97.8649C80.9808 98.5111 80.9166 99.1825 80.6633 99.7918C80.4099 100.401 79.9791 100.92 79.4268 101.281C78.8745 101.642 78.2263 101.828 77.5666 101.816C76.9068 101.804 76.2661 101.593 75.7278 101.212L27.9738 67.3194C27.6826 67.1129 27.334 67.0031 26.977 67.0056C26.6201 67.008 26.2729 67.1226 25.9846 67.333C23.967 68.6498 21.5947 69.3175 19.1865 69.2466C16.7783 69.1756 14.4495 68.3694 12.5129 66.9362C9.90724 65.227 8.00965 62.6312 7.17186 59.6298C6.77097 58.3187 6.66828 56.9345 6.87132 55.5786C7.07436 54.2227 7.57798 52.9293 8.34533 51.7932C9.11268 50.657 10.1243 49.7068 11.3063 49.012C12.4883 48.3172 13.8106 47.8955 15.1765 47.7777C18.2729 47.4302 21.3903 48.2168 23.951 49.9918C26.0038 51.2517 27.622 53.1096 28.5883 55.3158C29.5546 57.5221 29.8228 59.9712 29.3568 62.3343C29.2692 62.6807 29.2928 63.0459 29.4243 63.3781C29.5557 63.7104 29.7883 63.9929 30.0891 64.1856L79.4014 95.765C79.7713 95.9997 80.09 96.3067 80.3384 96.6675C80.5869 97.0284 80.76 97.4356 80.8474 97.8649ZM96.482 66.9328C94.5448 68.3656 92.2155 69.1713 89.807 69.2417C87.3985 69.312 85.0261 68.6436 83.0086 67.3262C82.7203 67.1157 82.3731 67.0012 82.0162 66.9988C81.6592 66.9963 81.3105 67.1061 81.0194 67.3126L62.1777 80.6889L57.661 77.7936L78.9058 64.1686C79.206 63.976 79.4381 63.6941 79.5695 63.3626C79.7009 63.031 79.7249 62.6666 79.6381 62.3207C79.1814 59.9572 79.4546 57.5107 80.4213 55.3061C81.3881 53.1016 83.0027 51.2433 85.0507 49.9782C90.5007 46.3045 97.5073 47.1152 100.656 51.7801C103.805 56.4449 101.93 63.2591 96.482 66.9328Z" fill="#2E8B42"/>
<path d="M22.0163 6.52808L20.1309 3.69067C16.0169 6.41671 12.9315 10.4392 11.3649 15.1192C9.79834 19.7992 9.84031 24.8685 11.4842 29.522L14.6946 28.3843C13.3045 24.4461 13.2702 20.1564 14.5971 16.1966C15.9239 12.2367 18.5359 8.83369 22.018 6.52808H22.0163Z" fill="#2E8B42"/>
<path d="M18.3086 34.5189C17.4885 33.5887 16.7618 32.5801 16.1388 31.5078L13.1907 33.2109C13.9263 34.4787 14.7848 35.6709 15.7539 36.7705L18.3086 34.5189Z" fill="#2E8B42"/>
<path d="M73.2003 61.6531L78.0491 37.4108C81.9912 37.0678 85.648 35.2135 88.2542 32.236C90.8605 29.2585 92.2143 25.3884 92.0323 21.4356C91.8503 17.4827 90.1468 13.7534 87.278 11.0279C84.4092 8.30236 80.5976 6.79188 76.6406 6.81247C73.1968 6.80028 69.8517 7.96276 67.1576 10.108C65.7544 8.04334 63.8674 6.35327 61.6611 5.18517C59.4549 4.01706 56.9964 3.40639 54.5 3.40639C52.0036 3.40639 49.5451 4.01706 47.3389 5.18517C45.1326 6.35327 43.2456 8.04334 41.8424 10.108C39.1483 7.96276 35.8032 6.80028 32.3594 6.81247C28.4159 6.81211 24.624 8.3316 21.772 11.055C18.92 13.7785 17.2274 17.4963 17.046 21.4356C16.8647 25.3749 18.2085 29.2325 20.7982 32.2065C23.3878 35.1805 27.0241 37.042 30.9509 37.404L35.7997 61.6531L39.1378 60.9855L38.1841 56.2031H70.8159L69.8622 60.9718L73.2003 61.6531ZM64.9793 52.7968L66.4048 42.8199L63.0326 42.3363L61.539 52.7968H56.2031V34.0625H52.7969V52.7968H47.461L45.9673 42.3363L42.5951 42.8199L44.0207 52.7968H37.5028L34.0284 35.425C33.9499 35.0403 33.7409 34.6945 33.4367 34.4463C33.1326 34.198 32.752 34.0624 32.3594 34.0625C29.1975 34.0625 26.1651 32.8064 23.9293 30.5706C21.6935 28.3348 20.4375 25.3025 20.4375 22.1406C20.4375 18.9787 21.6935 15.9463 23.9293 13.7106C26.1651 11.4748 29.1975 10.2187 32.3594 10.2187C33.9824 10.2146 35.5889 10.5452 37.0784 11.1898C38.5679 11.8345 39.9085 12.7795 41.0164 13.9656C41.2057 14.1658 41.4407 14.317 41.7013 14.4064C41.9619 14.4958 42.2403 14.5206 42.5126 14.4788C42.7849 14.4369 43.043 14.3296 43.2647 14.166C43.4865 14.0025 43.6652 13.7876 43.7856 13.5398C44.7586 11.5249 46.2799 9.82516 48.1751 8.63572C50.0703 7.44627 52.2625 6.81534 54.5 6.81534C56.7375 6.81534 58.9297 7.44627 60.8249 8.63572C62.72 9.82516 64.2414 11.5249 65.2144 13.5398C65.3348 13.7876 65.5135 14.0025 65.7352 14.166C65.957 14.3296 66.2151 14.4369 66.4874 14.4788C66.7597 14.5206 67.0381 14.4958 67.2987 14.4064C67.5593 14.317 67.7943 14.1658 67.9836 13.9656C69.0915 12.7795 70.4321 11.8345 71.9216 11.1898C73.4111 10.5452 75.0176 10.2146 76.6406 10.2187C79.8025 10.2187 82.8349 11.4748 85.0707 13.7106C87.3064 15.9463 88.5625 18.9787 88.5625 22.1406C88.5625 25.3025 87.3064 28.3348 85.0707 30.5706C82.8349 32.8064 79.8025 34.0625 76.6406 34.0625C76.248 34.0624 75.8674 34.198 75.5633 34.4463C75.2591 34.6945 75.0501 35.0403 74.9716 35.425L71.4972 52.7968H64.9793Z" fill="#2E8B42"/>
</svg>
