<svg width="16" height="16" viewBox="0 0 16 16" fill="none" xmlns="http://www.w3.org/2000/svg">
<path fill-rule="evenodd" clip-rule="evenodd" d="M10.632 6.31587C10.632 8.69942 8.69973 10.6317 6.31602 10.6317C3.9323 10.6317 2 8.69942 2 6.31587C2 3.93232 3.9323 2 6.31602 2C8.69973 2 10.632 3.93232 10.632 6.31587ZM10.0188 11.4331C8.97844 12.1872 7.69915 12.6317 6.31602 12.6317C2.82778 12.6317 0 9.80403 0 6.31587C0 2.82771 2.82778 0 6.31602 0C9.80425 0 12.632 2.82771 12.632 6.31587C12.632 7.69916 12.1873 8.97858 11.4331 10.019L15.7075 14.2933C16.0981 14.6839 16.0981 15.317 15.7076 15.7076C15.317 16.0981 14.6839 16.0981 14.2933 15.7076L10.0188 11.4331Z" fill="#444444" fill-opacity="0.6"/>
</svg>
