<svg width="25" height="14" viewBox="0 0 25 14" fill="none" xmlns="http://www.w3.org/2000/svg">
<path d="M24.5705 6.43839C24.52 6.37229 23.3087 4.80081 21.232 3.22299C18.457 1.1145 15.4374 0 12.4999 0C9.5625 0 6.54298 1.1145 3.76783 3.22299C1.69119 4.80075 0.479865 6.37229 0.42935 6.43839L0 6.99997L0.429405 7.56161C0.47992 7.62771 1.69124 9.19925 3.76788 10.7771C6.54303 12.8855 9.56255 14 12.5 14C15.4375 14 18.457 12.8855 21.232 10.7771C23.3087 9.19925 24.52 7.62771 24.5705 7.56161L25 6.99997L24.5705 6.43839ZM12.4999 11.9038C9.88529 11.9038 7.75808 9.704 7.75808 6.99997C7.75808 6.57633 7.81029 6.16508 7.90842 5.77267L6.82582 5.58425C6.71975 6.03846 6.66349 6.51254 6.66349 6.99997C6.66349 8.74663 7.38493 10.3221 8.53545 11.4253C7.05442 10.8595 5.79505 10.0656 4.84457 9.3476C3.66702 8.45814 2.78451 7.55855 2.28138 6.99997C2.78473 6.44122 3.66713 5.54175 4.84457 4.65235C5.79505 3.93433 7.05448 3.14041 8.53545 2.57459L9.2617 3.4212C10.1099 2.59983 11.249 2.0961 12.4999 2.0961C15.1145 2.0961 17.2417 4.29594 17.2417 6.99997C17.2417 9.704 15.1145 11.9038 12.4999 11.9038ZM20.1553 9.3476C19.2047 10.0656 17.9454 10.8595 16.4644 11.4253C17.6148 10.3222 18.3363 8.74668 18.3363 6.99992C18.3363 5.25315 17.6148 3.67771 16.4644 2.57453C17.9454 3.14035 19.2047 3.93427 20.1553 4.65229C21.3328 5.54175 22.2153 6.44134 22.7185 6.99986C22.2151 7.55872 21.3327 8.45825 20.1553 9.3476Z" fill="#F2994A"/>
<path d="M9.4823 6.04674C9.39331 6.34836 9.34509 6.66832 9.34509 7.00005C9.34509 8.80183 10.7575 10.2625 12.4998 10.2625C14.242 10.2625 15.6544 8.80189 15.6544 7.00005C15.6544 5.19821 14.242 3.73755 12.4998 3.73755C11.6512 3.73755 10.8814 4.08473 10.3143 4.64846L11.8704 6.46235L9.4823 6.04674Z" fill="#F2994A"/>
</svg>
