<svg width="24" height="20" viewBox="0 0 24 20" fill="none" xmlns="http://www.w3.org/2000/svg">
<path d="M19.7245 18.5906L23.185 1.27234C23.2985 0.704477 22.7214 0.239285 22.1688 0.453194L1.3436 8.51448C0.597086 8.80345 0.62548 9.84054 1.38675 10.0905L6.66661 11.8238L8.63733 18.2171C8.7621 18.6219 9.28101 18.7578 9.59783 18.4686L12.7523 15.5894L17.6777 19.3346C18.4316 19.9078 19.542 19.5042 19.7245 18.5906Z" fill="white"/>
<path d="M19.2844 4.50579L9.57732 13.1513L9.00635 18.5694C8.82531 18.4882 8.63035 18.7184 6.65283 11.851L18.9793 4.12105C19.2374 3.95917 19.5109 4.30403 19.2844 4.50579Z" fill="#D2E5F1"/>
<path d="M9.70327 18.3519L12.767 15.5887L9.57793 13.137L9.00696 18.5686C9.2632 18.6336 9.57793 18.4512 9.70327 18.3519Z" fill="#B5CFE4"/>
</svg>
