<svg width="20" height="20" viewBox="0 0 20 20" fill="none" xmlns="http://www.w3.org/2000/svg">
<path d="M10 0C4.48583 0 0 4.48583 0 10C0 15.5142 4.48583 20 10 20C15.5142 20 20 15.5142 20 10C20 4.48583 15.5142 0 10 0ZM10 17.8142C5.69083 17.8142 2.18582 14.3092 2.18582 10C2.18582 5.69167 5.69083 2.18582 10 2.18582C14.3092 2.18582 17.8142 5.69167 17.8142 10C17.8142 14.3092 14.3092 17.8142 10 17.8142Z" fill="#F2994A"/>
<path d="M10.785 9.88833V5.69583C10.785 5.22749 10.4058 4.84833 9.93834 4.84833C9.47001 4.84833 9.09082 5.22749 9.09082 5.69583V10.1592C9.09082 10.1725 9.09416 10.185 9.09499 10.1983C9.08332 10.4283 9.1633 10.6625 9.33913 10.8383L12.4933 13.9942C12.8242 14.325 13.3608 14.325 13.6917 13.9942C14.0217 13.6633 14.0225 13.1267 13.6917 12.7958L10.785 9.88833Z" fill="#F2994A"/>
</svg>
