<svg width="17" height="18" viewBox="0 0 17 18" fill="none" xmlns="http://www.w3.org/2000/svg">
<path d="M14.5315 7.58535C14.5522 5.10385 12.4806 2.82899 9.91346 2.51441C9.86241 2.50822 9.80678 2.49884 9.74791 2.48887C9.62081 2.46738 9.4894 2.44531 9.35681 2.44531C8.83068 2.44531 8.69004 2.82235 8.65301 3.04724C8.61698 3.26588 8.65135 3.44948 8.7549 3.59321C8.92914 3.83491 9.2357 3.87781 9.48195 3.91222C9.55413 3.9224 9.62223 3.93185 9.67924 3.94492C11.9857 4.4707 12.7623 5.29732 13.1418 7.63035C13.1511 7.68734 13.1553 7.75761 13.1597 7.8321C13.1763 8.111 13.2108 8.69121 13.8222 8.69121H13.8223C13.8732 8.69121 13.9279 8.68674 13.9848 8.67787C14.5542 8.58959 14.5364 8.05923 14.5278 7.8044C14.5254 7.73262 14.5231 7.66473 14.5291 7.61959C14.5306 7.60821 14.5314 7.59676 14.5315 7.58535Z" fill="#F4F4F4"/>
<path d="M9.2078 1.60409C9.27611 1.60911 9.3408 1.61392 9.39465 1.62235C13.182 2.21658 14.9238 4.04726 15.4065 7.94139C15.4147 8.0076 15.416 8.08832 15.4173 8.17381C15.4221 8.47804 15.432 9.11098 16.0983 9.12408L16.119 9.12429C16.3279 9.12429 16.4942 9.06 16.613 8.93308C16.8204 8.71177 16.806 8.38299 16.7943 8.11874C16.7915 8.05391 16.7887 7.99285 16.7894 7.9394C16.8376 3.95671 13.4584 0.345226 9.55807 0.210952C9.5419 0.210402 9.52646 0.211295 9.51086 0.21353C9.50321 0.214664 9.489 0.216108 9.46467 0.216108C9.42578 0.216108 9.37793 0.21267 9.32719 0.209164C9.26583 0.204867 9.19628 0.199951 9.12579 0.199951C8.50464 0.199951 8.38657 0.650352 8.37148 0.918832C8.33664 1.53936 8.92503 1.58302 9.2078 1.60409Z" fill="#F4F4F4"/>
<path d="M15.2241 12.9751C15.1435 12.9123 15.0603 12.8474 14.9823 12.7833C14.5688 12.4438 14.1289 12.1309 13.7034 11.8283C13.6151 11.7655 13.5268 11.7027 13.4388 11.6397C12.8938 11.2492 12.4039 11.0594 11.9409 11.0594C11.3174 11.0594 10.7739 11.4109 10.3252 12.1039C10.1264 12.4111 9.88527 12.5605 9.58807 12.5605C9.41235 12.5605 9.21263 12.5094 8.99462 12.4084C7.23547 11.5946 5.97933 10.3468 5.26103 8.69965C4.9138 7.90356 5.02638 7.3832 5.63748 6.95969C5.98452 6.7194 6.63046 6.27205 6.5847 5.41543C6.53288 4.44264 4.42898 1.51559 3.54252 1.18317C3.16721 1.04236 2.77287 1.04106 2.36836 1.1799C1.34926 1.52941 0.617963 2.1432 0.253308 2.95479C-0.0990818 3.73902 -0.0831774 4.65983 0.299337 5.6177C1.4051 8.38713 2.95972 10.8017 4.9202 12.7943C6.83917 14.7448 9.19774 16.3425 11.9303 17.5429C12.1766 17.651 12.435 17.71 12.6236 17.753C12.6879 17.7678 12.7434 17.7804 12.7839 17.7917C12.8061 17.7979 12.829 17.8012 12.852 17.8014L12.8736 17.8015C12.8737 17.8015 12.8736 17.8015 12.8737 17.8015C14.159 17.8015 15.7022 16.6033 16.1762 15.2374C16.5914 14.0413 15.8332 13.4501 15.2241 12.9751Z" fill="#F4F4F4"/>
<path d="M9.77599 4.76757C9.55596 4.77324 9.098 4.78482 8.93734 5.26066C8.86216 5.48301 8.87116 5.67607 8.96412 5.83448C9.10052 6.06689 9.3619 6.13812 9.59963 6.17721C10.4618 6.31836 10.9045 6.80472 10.9931 7.70772C11.0342 8.12876 11.3121 8.42278 11.669 8.42278H11.669C11.6954 8.42278 11.7224 8.4212 11.7492 8.41787C12.1784 8.36579 12.3864 8.04409 12.3676 7.46186C12.3745 6.85418 12.0628 6.16432 11.5326 5.61481C11.0006 5.06362 10.3593 4.7532 9.77599 4.76757Z" fill="#F4F4F4"/>
</svg>
