<svg width="20" height="12" viewBox="0 0 20 12" fill="none" xmlns="http://www.w3.org/2000/svg">
<path d="M16.9241 7.47616C17.561 8.09798 18.2332 8.68298 18.8044 9.36751C19.0568 9.67171 19.2956 9.98558 19.4784 10.3386C19.7374 10.8404 19.5028 11.3927 19.0529 11.4226L16.2557 11.4213C15.5343 11.4812 14.9588 11.1908 14.4749 10.6975C14.0876 10.3031 13.729 9.88324 13.3566 9.47547C13.204 9.30882 13.0442 9.15199 12.8533 9.02802C12.4715 8.78018 12.14 8.85605 11.9218 9.2543C11.6996 9.65937 11.6491 10.1079 11.6273 10.5593C11.5973 11.2179 11.3983 11.3911 10.7366 11.4213C9.32271 11.4879 7.98081 11.274 6.7342 10.5608C5.63515 9.93196 4.78292 9.04422 4.0411 8.03926C2.59686 6.0824 1.4908 3.93207 0.496748 1.72152C0.272986 1.22348 0.436636 0.956145 0.986161 0.946658C1.89865 0.92892 2.81102 0.930195 3.7246 0.945383C4.09547 0.95082 4.34099 1.16352 4.4842 1.51388C4.97789 2.7278 5.58197 3.88272 6.34022 4.95323C6.54216 5.23823 6.74807 5.52327 7.04125 5.72386C7.36562 5.94597 7.6126 5.87236 7.76519 5.51101C7.86201 5.28188 7.90442 5.0351 7.92625 4.78973C7.99855 3.9455 8.00807 3.10268 7.88129 2.26141C7.80344 1.73637 7.50771 1.39647 6.9838 1.29713C6.71646 1.24647 6.75625 1.14698 6.8857 0.994395C7.11051 0.73122 7.32197 0.567383 7.74351 0.567383H10.9047C11.4023 0.665595 11.5129 0.889171 11.581 1.38991L11.5837 4.9013C11.5783 5.09513 11.6805 5.67042 12.0297 5.79871C12.3091 5.89006 12.4933 5.66648 12.661 5.4893C13.4179 4.68601 13.9581 3.73666 14.4407 2.75363C14.6548 2.32137 14.839 1.8725 15.0175 1.42396C15.1497 1.09115 15.3572 0.927383 15.7321 0.93462L18.7745 0.93732C18.8647 0.93732 18.956 0.938633 19.0434 0.953595C19.556 1.04097 19.6966 1.26151 19.5382 1.76213C19.2887 2.54757 18.8033 3.20213 18.3286 3.85969C17.8213 4.56173 17.2786 5.23977 16.7755 5.94597C16.3132 6.59097 16.3499 6.91602 16.9241 7.47616Z" fill="#F4F4F4"/>
</svg>
