<svg width="22" height="22" viewBox="0 0 22 22" fill="none" xmlns="http://www.w3.org/2000/svg">
<path d="M6.06969 19.0475C7.50762 19.9333 9.19422 20.4405 11.0022 20.4405C16.2082 20.4405 20.4405 16.2056 20.4405 11C20.4405 5.79429 16.2082 1.55939 11.0022 1.55939H10.9978C5.79172 1.55939 1.55939 5.79313 1.55939 11C1.55939 12.9448 2.15023 14.7573 3.16511 16.2607L2.17125 19.2233L1.76905 20.4223L2.9736 20.0372L6.06969 19.0475Z" stroke="#F4F4F4" stroke-width="1.28112"/>
<path d="M16.123 14.6267C15.9107 15.2262 15.0681 15.7234 14.396 15.8686C13.9362 15.9665 13.3356 16.0446 11.3138 15.2064C8.72765 14.135 7.06225 11.5071 6.93245 11.3366C6.80815 11.1661 5.88745 9.94505 5.88745 8.68225C5.88745 7.41945 6.52875 6.80455 6.78725 6.54055C6.99955 6.32385 7.35045 6.22485 7.68705 6.22485C7.79595 6.22485 7.89385 6.23035 7.98185 6.23475C8.24035 6.24575 8.37015 6.26115 8.54065 6.66925C8.75295 7.18075 9.26995 8.44355 9.33155 8.57335C9.39425 8.70315 9.45695 8.87915 9.36895 9.04965C9.28645 9.22565 9.21385 9.30375 9.08405 9.45335C8.95425 9.60295 8.83105 9.71735 8.70125 9.87795C8.58245 10.0177 8.44825 10.1673 8.59785 10.4258C8.74745 10.6788 9.26445 11.5225 10.0257 12.2001C11.008 13.0746 11.8044 13.354 12.0893 13.4728C12.3016 13.5608 12.5546 13.5399 12.7097 13.3749C12.9066 13.1626 13.1497 12.8106 13.3972 12.4641C13.5732 12.2155 13.7954 12.1847 14.0286 12.2727C14.2662 12.3552 15.5235 12.9767 15.782 13.1054C16.0405 13.2352 16.2109 13.2968 16.2737 13.4057C16.3352 13.5146 16.3352 14.0261 16.123 14.6267Z" fill="#F4F4F4"/>
</svg>
