<?xml version="1.0" encoding="utf-8"?><svg xmlns="http://www.w3.org/2000/svg" xmlns:xlink="http://www.w3.org/1999/xlink"><symbol viewBox="0 0 11 6" id="arrow-down" xmlns="http://www.w3.org/2000/svg"><path d="M10 1L5.5 5 1 1"/></symbol><symbol viewBox="0 0 24 24" id="dagger" xmlns="http://www.w3.org/2000/svg"><path d="M12 2v20m10-10H2"/></symbol><symbol viewBox="0 0 10 18" id="fb" xmlns="http://www.w3.org/2000/svg"><path d="M9.4.204L7.116.2c-2.563 0-4.22 1.7-4.22 4.331v1.997H.6a.359.359 0 00-.359.36V9.78a.36.36 0 00.36.359h2.294v7.301c0 .198.16.359.359.359h2.994c.198 0 .359-.16.359-.359v-7.3H9.29c.198 0 .359-.16.359-.359V6.887a.36.36 0 00-.358-.359H6.608V4.835c0-.813.194-1.226 1.254-1.226h1.537a.36.36 0 00.359-.36V.562a.359.359 0 00-.359-.358z"/></symbol><symbol viewBox="0 0 26 16" id="google+" xmlns="http://www.w3.org/2000/svg"><path d="M.205 8.01C.046 3.885 3.72.074 7.918.024c2.14-.18 4.22.638 5.84 1.97a36.562 36.562 0 01-2.062 2.094c-1.425-.852-3.142-1.501-4.808-.925-2.687.753-4.314 3.873-3.32 6.458.824 2.7 4.163 4.182 6.78 3.048 1.355-.477 2.249-1.707 2.641-3.028-1.553-.03-3.107-.012-4.66-.054-.004-.909-.007-1.814-.004-2.723 2.59-.004 5.184-.011 7.779.012.159 2.226-.175 4.61-1.647 6.396-2.016 2.551-5.74 3.3-8.769 2.3C2.473 14.531.135 11.347.205 8.01zm20.947-3.437h2.31l.017 2.283c.772.008 1.549.012 2.322.015v2.277l-2.322.011a436.66 436.66 0 00-.016 2.287c-.773-.003-1.546 0-2.315 0-.007-.763-.007-1.523-.015-2.283-.773-.008-1.55-.012-2.322-.016V6.871c.773-.004 1.545-.008 2.322-.015.004-.76.011-1.523.02-2.283z"/></symbol><symbol viewBox="0 0 20 20" id="inst" xmlns="http://www.w3.org/2000/svg"><path d="M10 .41C6.068.41 2.334.06.908 3.716.318 5.227.404 7.19.404 10c0 2.465-.079 4.781.504 6.28 1.423 3.66 5.187 3.31 9.09 3.31 3.765 0 7.648.39 9.091-3.31.59-1.525.504-3.458.504-6.28 0-3.746.206-6.165-1.612-7.98C16.141.18 13.651.41 9.996.41H10zm-.86 1.727c8.202-.013 9.246-.924 8.67 11.733-.204 4.477-3.616 3.986-7.809 3.986-7.645 0-7.865-.219-7.865-7.862 0-7.731.606-7.852 7.004-7.859v.002zm5.982 1.592a1.15 1.15 0 100 2.302 1.15 1.15 0 000-2.302zM10 5.074a4.925 4.925 0 100 9.848 4.924 4.924 0 100-9.848zm0 1.728c4.229 0 4.234 6.393 0 6.393-4.228 0-4.234-6.393 0-6.393z"/></symbol><symbol viewBox="0 0 12 22" id="next-slider" xmlns="http://www.w3.org/2000/svg"><path d="M10.333 20.167L2 11l8.333-9.167"/></symbol><symbol viewBox="0 0 16 24" id="odno" xmlns="http://www.w3.org/2000/svg"><path d="M1.013 12.823c-.588 1.124.08 1.662 1.604 2.58 1.297.779 3.087 1.063 4.237 1.177l-.964.902c-1.366 1.265-2.662 2.49-3.568 3.338-1.32 1.229.804 3.201 2.122 1.998l3.57-3.346c1.365 1.278 2.675 2.502 3.568 3.35 1.319 1.209 3.441-.747 2.137-1.998l-3.569-3.337-.977-.902c1.164-.114 2.928-.415 4.209-1.177h-.001c1.524-.924 2.193-1.46 1.613-2.585-.35-.639-1.295-1.173-2.553-.25 0 0-1.698 1.265-4.438 1.265-2.74 0-4.437-1.265-4.437-1.265-1.258-.927-2.206-.389-2.553.25z"/><path d="M8 12.133c3.34 0 6.066-2.537 6.066-5.66C14.066 3.337 11.34.8 8.001.8 4.66.8 1.934 3.337 1.934 6.473c0 3.123 2.726 5.66 6.067 5.66zm0-8.46c1.641 0 2.98 1.253 2.98 2.8C10.98 8.008 9.64 9.26 8 9.26S5.021 8.009 5.021 6.474c0-1.548 1.338-2.8 2.98-2.8z"/></symbol><symbol viewBox="0 0 12 22" id="prev-slider" xmlns="http://www.w3.org/2000/svg"><path d="M1.667 1.833L10 11l-8.333 9.167"/></symbol><symbol viewBox="0 0 117 103" id="review-icon-1" xmlns="http://www.w3.org/2000/svg"><path d="M115.724 49.028a4.687 4.687 0 00-3.416-1.49h-.383a19.737 19.737 0 002.681-9.904c0-7.9-4.715-15.014-11.872-18.14C102.566 8.72 93.781 0 82.992 0c-10.787 0-19.57 8.714-19.744 19.485a5.41 5.41 0 00-1.24-.15 5.41 5.41 0 00-4.421 2.298l-.492.701a1.458 1.458 0 01-1.802.485l-.775-.36a5.395 5.395 0 00-4.977.221 5.427 5.427 0 00-2.684 4.208l-.076.853c-.028.306-.163.731-.339 1.187a1.458 1.458 0 01-.824-1.188l-.076-.85c-.15-1.664-1.038-3.043-2.309-3.916l6.22-8.846a7.878 7.878 0 001.317-5.915 7.869 7.869 0 00-3.227-5.126 7.9 7.9 0 00-11.014 1.914L25.147 21.192c-.38.54-.66 1.127-.891 1.73a1.22 1.22 0 01-.581-.104l-.774-.36a5.405 5.405 0 00-7.66 4.429l-.076.854a1.458 1.458 0 01-1.32 1.323l-.85.077a5.418 5.418 0 00-4.197 2.688 5.443 5.443 0 00-.223 4.993l.358.773a1.461 1.461 0 01-.484 1.808l-.698.493a5.441 5.441 0 00-2.294 4.436c0 1.174.411 2.283 1.09 3.204H4.69a4.69 4.69 0 00-3.416 1.49 4.763 4.763 0 00-1.263 3.56C1.18 69.91 12.175 78.61 28.324 86.341a9.216 9.216 0 014.194 4.045c.881 1.707.74 3.91-.384 5.784a4.466 4.466 0 00-.063 4.542A4.442 4.442 0 0035.984 103h45.033a4.443 4.443 0 003.912-2.287c.808-1.434.785-3.132-.083-4.578-1.105-1.84-1.242-4.04-.363-5.746a9.2 9.2 0 014.193-4.047c16.146-7.731 27.142-16.429 28.314-33.755a4.78 4.78 0 00-1.266-3.56zm-5.068-11.394c0 3.605-1.234 7.09-3.493 9.905H96.825v-7.924a1.977 1.977 0 10-3.953 0v7.924h-6.977c.16-.219.298-.449.423-.686l.02-.03a5.518 5.518 0 00.466-1.34c.081-.377.138-.76.138-1.151a5.422 5.422 0 00-2.292-4.43l-.454-.322c.158-.01.31-.036.466-.048a18.755 18.755 0 001.865-.25c.225-.042.453-.08.676-.128.411-.09.816-.2 1.217-.315.18-.052.362-.093.54-.15a19.78 19.78 0 001.654-.61c.15-.063.292-.138.438-.205.39-.176.781-.358 1.158-.56.211-.114.417-.236.623-.357.302-.176.602-.355.894-.547a20 20 0 001.43-1.03c.21-.166.42-.33.623-.504.244-.209.475-.426.708-.645.2-.186.4-.37.593-.564.22-.224.423-.461.63-.696.394-.44.765-.899 1.118-1.376.125-.168.258-.33.378-.505.215-.31.413-.634.61-.955.099-.162.201-.323.297-.489a20 20 0 00.561-1.06c.069-.142.138-.283.205-.428.184-.393.356-.792.514-1.2.033-.087.065-.178.096-.265a19.6 19.6 0 00.868-2.98 15.858 15.858 0 018.298 13.921zM82.992 3.961c8.716 0 15.808 7.11 15.808 15.847 0 .299-.025.593-.043.888 0 0-.006.011-.006.02a15.755 15.755 0 01-2.13 7.083c-.028.047-.053.095-.081.142-.212.355-.441.7-.68 1.034-.051.074-.1.147-.152.218-.223.305-.462.598-.707.886-.077.09-.153.184-.231.273-.231.262-.477.51-.726.755-.103.103-.203.206-.31.307-.237.221-.486.43-.737.638-.129.107-.255.215-.387.316-.243.186-.494.361-.747.535-.152.105-.302.212-.46.31-.248.157-.502.298-.757.441-.173.097-.347.198-.526.29-.249.126-.505.239-.76.352-.196.087-.39.178-.59.256-.25.098-.508.183-.764.269-.216.073-.426.148-.646.211-.25.074-.506.129-.76.189-.236.055-.47.115-.708.16-.247.046-.498.076-.747.111-.255.036-.508.074-.765.098-.049.003-.1.003-.151.008v-.003c.003-.025.003-.05.008-.075.064-.358.086-.721.078-1.084-.002-.116-.015-.23-.025-.346a5.571 5.571 0 00-.138-.842c-.028-.111-.05-.222-.085-.331a5.357 5.357 0 00-.46-1.084 5.413 5.413 0 00-4.198-2.687l-.851-.078a1.457 1.457 0 01-1.184-.826l4.222-4.23a1.981 1.981 0 000-2.8 1.969 1.969 0 00-2.793 0l-2.82 2.826c-.417-.529-.907-1.005-1.504-1.351a5.384 5.384 0 00-1.258-.522c-.147-.041-.295-.046-.443-.072a5.17 5.17 0 00-.89-.118c-.037 0-.074-.016-.112-.016-.227 0-.45.044-.675.074-.14.017-.28.017-.42.045a5.4 5.4 0 00-1.18.382l-.77.36a1.342 1.342 0 01-.618.118c-.013 0-.022-.003-.034-.003a1.43 1.43 0 01-.604-.176 15.727 15.727 0 01-.29-2.95c0-8.739 7.09-15.848 15.807-15.848zM50.716 28.1l.078-.853c.041-.48.306-.894.723-1.133.414-.24.904-.266 1.339-.06l.78.363a5.407 5.407 0 006.69-1.798l.492-.702c.555-.79 1.831-.785 2.383-.002l.492.701a5.386 5.386 0 004.263 2.276h.057c.24.004.48 0 .72-.027.112-.012.222-.038.335-.058.162-.03.322-.052.482-.095.285-.076.565-.174.838-.301l.772-.36c.437-.202.927-.18 1.34.058.415.242.68.654.722 1.136l.076.849a5.415 5.415 0 004.9 4.912l.85.078c.48.041.894.307 1.133.725.241.415.263.907.061 1.34l-.363.785c-.016.036-.022.067-.036.103a5.42 5.42 0 00.277 4.867l.035.06c.107.181.22.353.348.522.07.093.146.178.222.268.096.11.19.225.295.328.202.2.418.389.655.555l.701.498c.391.28.616.716.616 1.198 0 .481-.225.915-.616 1.193l-.703.494-.018.017a5.263 5.263 0 00-.711.618c-.088.088-.163.19-.244.284a5.3 5.3 0 00-.337.436c-.04.058-.091.107-.129.166H54.28a5.57 5.57 0 00.425-.687c.005-.01.011-.018.017-.027a5.545 5.545 0 00.466-1.339c.083-.375.139-.757.14-1.147v-.004c0-.254-.055-.495-.088-.742-.026-.183-.022-.37-.068-.55-.143-.59-.418-1.13-.746-1.637-.371-.573-.82-1.098-1.392-1.503l-.698-.495a1.457 1.457 0 01-.483-1.802l.362-.778a5.4 5.4 0 00.38-1.182c.025-.122.025-.242.041-.363.04-.285.069-.569.063-.854-.004-.149-.027-.295-.043-.444a5.43 5.43 0 00-.125-.758c-.041-.163-.096-.317-.152-.476-.047-.13-.071-.267-.127-.395-.034-.078-.092-.135-.13-.209-.049-.1-.075-.21-.13-.309-.105-.18-.247-.329-.371-.494-.104-.139-.195-.284-.31-.413a5.288 5.288 0 00-.796-.707c-.084-.063-.148-.153-.236-.21.204-.602.378-1.264.437-1.916zM39.762 7.284a3.95 3.95 0 015.507-.957 3.928 3.928 0 011.61 2.563 3.94 3.94 0 01-.655 2.957l-7.71 10.966-.001.003-3.673 5.222a3.91 3.91 0 01-2.555 1.616 3.941 3.941 0 01-2.951-.659c-.004-.002-.005-.006-.01-.008a3.94 3.94 0 01-.735-.702 3.553 3.553 0 01-.157-.204 4.006 4.006 0 01-.47-.83c-.009-.019-.02-.035-.029-.055a4.013 4.013 0 01-.226-.98 4.342 4.342 0 01-.02-.256 3.958 3.958 0 01.063-1.022 3.932 3.932 0 01.628-1.46L39.762 7.285zM10.724 46.018l-.7-.494a1.441 1.441 0 01-.617-1.194c0-.483.225-.917.617-1.196l.696-.492a5.427 5.427 0 001.797-6.715l-.358-.772a1.453 1.453 0 01.059-1.347 1.44 1.44 0 011.132-.724l.848-.077a5.413 5.413 0 004.903-4.91l.076-.853c.043-.48.307-.892.722-1.134.413-.24.905-.261 1.34-.059l.778.363a5.151 5.151 0 001.773.461c.005.042.023.083.031.125.006.036.002.071.008.105.04.226.122.434.18.653.067.256.118.516.21.765.108.293.258.564.398.841.096.188.168.379.279.557.194.315.43.6.667.886.101.12.18.253.287.369.364.386.765.742 1.208 1.053a8 8 0 001.226.7c.135.06.272.11.41.163.302.122.608.225.922.305.158.042.314.082.477.111.334.066.671.103 1.013.126.128.008.253.027.381.03.034 0 .065.007.1.007.455 0 .914-.04 1.372-.119a7.855 7.855 0 005.112-3.236l2.907-4.136c.33.22.585.576.628 1.064l.077.849a5.417 5.417 0 004.9 4.912l.85.077c.186.017.348.093.506.171.077.04.155.075.223.128.107.08.194.183.274.29.052.067.11.129.15.206.094.186.161.382.17.584v.028c.007.222-.035.447-.131.657l-.363.778a5.41 5.41 0 00-.477 2.773c.002.013.005.024.005.038a5.4 5.4 0 002.265 3.9l.48.339.22.154a1.47 1.47 0 01.457 1.877c-.029.059-.092.094-.132.15-.094.134-.185.271-.325.37l-.026.017-.676.477c-.27.192-.52.414-.749.65-.07.074-.128.158-.194.233a5.68 5.68 0 00-.423.545c-.021.03-.05.059-.07.09H12.165a5.427 5.427 0 00-1.44-1.52zm76.248 36.749a13.197 13.197 0 00-6.001 5.8c-1.508 2.92-1.32 6.603.507 9.645.135.226.08.424.007.55a.52.52 0 01-.473.277H35.983c-.26 0-.4-.15-.472-.278-.07-.125-.129-.323.028-.584 1.808-3.01 1.996-6.691.488-9.613a13.174 13.174 0 00-6-5.8C14.704 75.431 4.997 67.78 3.954 52.32a.783.783 0 01.208-.588.703.703 0 01.53-.232h107.617a.71.71 0 01.53.232c.085.093.227.29.206.588C112 67.78 102.294 75.43 86.972 82.767z"/><path d="M73.112 85.173H55.908a1.979 1.979 0 00-1.977 1.98 1.98 1.98 0 001.977 1.982h17.204a1.979 1.979 0 001.977-1.981 1.978 1.978 0 00-1.977-1.981zm-29.64 3.962h6.69a1.978 1.978 0 001.977-1.981 1.978 1.978 0 00-1.976-1.981h-6.69a1.979 1.979 0 00-1.977 1.98 1.978 1.978 0 001.976 1.982zm29.64 1.98h-29.64c-1.09 0-1.976.886-1.976 1.981 0 1.096.886 1.981 1.976 1.981h29.64a1.978 1.978 0 001.977-1.98 1.978 1.978 0 00-1.977-1.982zm5.689-72.707a1.97 1.97 0 002.794 0 1.981 1.981 0 000-2.801l-5.59-5.601a1.97 1.97 0 00-2.793 0 1.98 1.98 0 000 2.8l5.59 5.602zM89.977 29.61a1.97 1.97 0 002.795 0 1.984 1.984 0 000-2.8l-5.59-5.602a1.97 1.97 0 00-2.795 0 1.983 1.983 0 000 2.801l5.59 5.602zm-4.191-10.622c.506 0 1.012-.195 1.398-.58l5.59-5.603a1.982 1.982 0 000-2.8 1.97 1.97 0 00-2.794 0l-5.59 5.602a1.981 1.981 0 001.396 3.38zm11.039 16.666c0 1.095.882 1.98 1.975 1.98h7.904a1.977 1.977 0 001.977-1.98 1.978 1.978 0 00-1.977-1.981H98.8a1.977 1.977 0 00-1.975 1.981zm-36.557.991c.507 0 1.013-.195 1.397-.581l2.965-2.97a1.981 1.981 0 000-2.802 1.97 1.97 0 00-2.794 0l-2.964 2.971a1.981 1.981 0 001.396 3.382zm9.472 4.371a1.969 1.969 0 002.793 0 1.981 1.981 0 000-2.801l-1.975-1.98a1.97 1.97 0 00-2.794 0 1.981 1.981 0 000 2.8l1.975 1.98zm-7.904-.82l-1.977 1.98a1.981 1.981 0 001.398 3.382c.506 0 1.01-.195 1.397-.581l1.976-1.98a1.981 1.981 0 000-2.801 1.97 1.97 0 00-2.794 0z"/></symbol><symbol viewBox="0 0 109 109" id="review-icon-2" xmlns="http://www.w3.org/2000/svg"><path d="M104.04 5.817C100.534 2.067 95.777 0 90.644 0H18.351C7.868 0-.655 9.138.055 19.593l3.199 47.15c.14 2.054 3.325 1.838 3.186-.216l-3.2-47.15C2.656 10.74 9.695 3.193 18.352 3.193h72.293c8.657 0 15.697 7.547 15.111 16.184l-4.906 72.3c-.537 7.923-7.175 14.13-15.11 14.13H23.257c-7.935 0-14.573-6.207-15.11-14.13L6.44 66.527c-.14-2.055-3.325-1.839-3.186.216l1.707 25.15C5.61 101.486 13.648 109 23.257 109h62.481c9.61 0 17.646-7.514 18.297-17.107l4.906-72.3c.348-5.129-1.393-10.02-4.901-13.776z"/><path d="M70.572 37.15c0 .881.715 1.596 1.597 1.596h6.386c.882 0 1.597-.715 1.597-1.597 0-14.145-11.508-25.653-25.653-25.653-14.146 0-25.654 11.508-25.654 25.653 0 .882.715 1.597 1.597 1.597H63.44c2.06 0 2.06-3.193 0-3.193h-7.733l-6.948-12.384c-1.007-1.796-3.792-.233-2.785 1.563l6.071 10.82h-19.95a22.36 22.36 0 015.268-12.907l2.192 2.191c1.456 1.457 3.714-.802 2.258-2.258l-2.217-2.217A22.48 22.48 0 0146.935 16l.797 2.975c.53 1.982 3.617 1.164 3.084-.827l-.806-3.008c2.8-.57 5.708-.6 8.52-.088l-.787 2.936c-.533 1.99 2.553 2.808 3.084.826l.795-2.966a22.454 22.454 0 017.397 4.179l-2.113 2.112c-1.456 1.456.802 3.714 2.258 2.258l2.137-2.137a22.372 22.372 0 015.602 13.292h-4.734c-.882 0-1.597.715-1.597 1.596zm-54.5-26.931a5.648 5.648 0 00-5.642 5.641 5.648 5.648 0 005.642 5.642c3.11 0 5.642-2.53 5.642-5.642a5.648 5.648 0 00-5.642-5.641zm0 8.09a2.451 2.451 0 01-2.448-2.449 2.451 2.451 0 012.448-2.448 2.451 2.451 0 012.448 2.448 2.45 2.45 0 01-2.448 2.449zm76.853 3.193a5.648 5.648 0 005.642-5.642c0-3.11-2.53-5.641-5.641-5.641a5.648 5.648 0 00-5.642 5.641 5.648 5.648 0 005.641 5.642zm0-8.09a2.451 2.451 0 012.449 2.448 2.451 2.451 0 01-2.448 2.449 2.451 2.451 0 01-2.449-2.449 2.451 2.451 0 012.448-2.448zM15.327 92.288c0 3.11 2.53 5.642 5.641 5.642s5.642-2.531 5.642-5.642c0-3.11-2.53-5.641-5.642-5.641a5.648 5.648 0 00-5.641 5.641zm5.641-2.448a2.451 2.451 0 012.449 2.448 2.451 2.451 0 01-2.449 2.448 2.451 2.451 0 01-2.448-2.448 2.451 2.451 0 012.448-2.448zm61.419 2.448a5.649 5.649 0 005.642 5.642 5.649 5.649 0 005.642-5.642 5.648 5.648 0 00-5.642-5.641 5.648 5.648 0 00-5.642 5.641zm5.642-2.448a2.451 2.451 0 012.448 2.448 2.451 2.451 0 01-2.448 2.448 2.451 2.451 0 01-2.448-2.448 2.451 2.451 0 012.448-2.448z"/></symbol><symbol viewBox="0 0 109 109" id="review-icon-3" xmlns="http://www.w3.org/2000/svg"><path d="M100.294 72.582a19.249 19.249 0 01-17.125 2.453 1.703 1.703 0 00-1.559.216l-7.664 5.434 1.972 2.778 6.954-4.939a22.766 22.766 0 0019.322-3.122 24.15 24.15 0 002.846-2.251l-2.309-2.504a20.521 20.521 0 01-2.437 1.935z"/><path d="M83.143 47.165a15.486 15.486 0 00-7.052 14.77L54.5 75.773l-21.594-13.83a15.416 15.416 0 00-7.06-14.767 16.284 16.284 0 00-11.104-2.769A12.604 12.604 0 003.88 60.51a16.272 16.272 0 006.729 9.251 15.413 15.413 0 0016.35 1.01l16.76 11.9-15.95 10.227a6.672 6.672 0 00-1.944 9.379 6.694 6.694 0 004.346 2.832 6.695 6.695 0 005.063-1.129L54.5 90.317l19.266 13.672a6.698 6.698 0 005.105 1.191 6.694 6.694 0 002.368-12.285L65.271 82.677l16.772-11.905a15.414 15.414 0 0016.35-1.007c7-4.724 9.285-13.639 5.091-19.872-4.195-6.233-13.326-7.453-20.34-2.728zm-49.881 54.043a3.359 3.359 0 01-4.619-.843 3.266 3.266 0 01-.495-2.501 3.271 3.271 0 011.45-2.097l17.115-10.975 4.835 3.43-18.286 12.986zm47.585-3.343a3.288 3.288 0 01-5.12 3.347L27.975 67.319a1.702 1.702 0 00-1.99.014 11.803 11.803 0 01-13.471-.397 12.88 12.88 0 01-5.341-7.306 9.197 9.197 0 018.005-11.852 12.88 12.88 0 018.774 2.214 11.803 11.803 0 015.406 12.342 1.702 1.702 0 00.732 1.852l49.312 31.579a3.255 3.255 0 011.446 2.1zm15.635-30.932a11.805 11.805 0 01-13.473.393 1.702 1.702 0 00-1.99-.013L62.178 80.689l-4.517-2.895 21.245-13.625a1.703 1.703 0 00.732-1.848 11.863 11.863 0 015.413-12.343c5.45-3.674 12.456-2.863 15.605 1.802 3.149 4.665 1.274 11.48-4.174 15.153zM22.016 6.528l-1.885-2.837a22.141 22.141 0 00-8.647 25.831l3.21-1.138a18.734 18.734 0 017.324-21.856h-.002zm-3.707 27.991a18.942 18.942 0 01-2.17-3.011L13.19 33.21a22.34 22.34 0 002.563 3.56l2.555-2.252z"/><path d="M73.2 61.653l4.85-24.242a15.328 15.328 0 00-1.41-30.599 15.138 15.138 0 00-9.482 3.296 15.304 15.304 0 00-25.316 0 15.138 15.138 0 00-9.483-3.296 15.328 15.328 0 00-1.408 30.592l4.849 24.25 3.338-.669-.954-4.782h32.632l-.954 4.769 3.338.681zm-8.22-8.856l1.425-9.977-3.372-.484-1.494 10.46h-5.336V34.064h-3.406v18.734H47.46l-1.494-10.46-3.372.483 1.426 9.977h-6.518l-3.475-17.372a1.702 1.702 0 00-1.669-1.362 11.922 11.922 0 010-23.844 11.807 11.807 0 018.657 3.747 1.703 1.703 0 002.77-.426 11.898 11.898 0 0121.428 0 1.703 1.703 0 002.77.426 11.806 11.806 0 018.657-3.747 11.922 11.922 0 010 23.844 1.703 1.703 0 00-1.67 1.362l-3.474 17.372H64.98z"/></symbol><symbol viewBox="0 0 91 113" id="review-icon-4" xmlns="http://www.w3.org/2000/svg"><path d="M85.644 0H5.356C2.403 0 0 2.33 0 5.193v102.614C0 110.671 2.403 113 5.356 113h82.112c.943 0 1.707-.741 1.707-1.655 0-.915-.764-1.656-1.707-1.656h-.117V98.574C89.47 97.882 91 95.938 91 93.654V5.193C91 2.33 88.597 0 85.644 0zm1.942 93.653c0 1.038-.872 1.883-1.942 1.883h-3.65c-.944 0-1.708.741-1.708 1.655s.764 1.656 1.707 1.656h1.943v3.765H9.006c-.943 0-1.708.742-1.708 1.656 0 .914.765 1.655 1.708 1.655h74.93v3.766H5.356c-1.07 0-1.942-.844-1.942-1.882v-7.078c0-1.038.872-1.882 1.942-1.882h69.34c.942 0 1.706-.741 1.706-1.656 0-.914-.764-1.655-1.707-1.655H10.713V12.271c0-.914-.764-1.656-1.707-1.656-.943 0-1.708.742-1.708 1.656v83.265H5.356c-.684 0-1.339.127-1.942.355V5.193c0-1.038.872-1.882 1.942-1.882h1.942v1.882c0 .915.765 1.656 1.708 1.656s1.707-.74 1.707-1.656V3.311h74.93c1.071 0 1.943.844 1.943 1.882v88.46z"/><path d="M63.747 35.384c-.372 0-.745.022-1.129.067-2.15-5.317-7.48-8.913-13.469-8.913-5.988 0-11.318 3.596-13.468 8.913a9.532 9.532 0 00-1.13-.067c-5.971 0-10.83 4.71-10.83 10.5 0 5.229 3.96 9.575 9.123 10.372v7.321c0 2.863 2.404 5.194 5.357 5.194h21.897c2.953 0 5.356-2.33 5.356-5.194v-7.32c5.164-.797 9.124-5.144 9.124-10.372 0-5.79-4.859-10.5-10.831-10.5zm-3.65 30.076H38.203c-1.072 0-1.943-.845-1.943-1.883v-1.883h25.78v1.883c-.001 1.038-.873 1.883-1.943 1.883zm3.65-12.384c-.943 0-1.707.741-1.707 1.655v3.652h-5.048l2.9-8.436c.299-.867-.185-1.805-1.08-2.094-.894-.289-1.86.18-2.16 1.047l-3.259 9.483h-2.537v-10.73c0-.913-.764-1.654-1.707-1.654-.942 0-1.707.741-1.707 1.655v10.729h-2.536l-3.26-9.483c-.298-.868-1.266-1.337-2.16-1.047-.895.289-1.378 1.227-1.08 2.094l2.9 8.436H36.26V54.73c0-.914-.764-1.655-1.707-1.655-4.09 0-7.416-3.226-7.416-7.191s3.326-7.191 7.416-7.191c.557 0 1.145.083 1.85.26.908.226 1.833-.296 2.076-1.172 1.3-4.671 5.687-7.934 10.671-7.934 4.985 0 9.373 3.263 10.672 7.934.243.876 1.17 1.398 2.075 1.171.706-.176 1.293-.26 1.85-.26 4.09 0 7.417 3.227 7.417 7.192 0 3.965-3.327 7.19-7.416 7.19zm0 21.229H34.552c-.943 0-1.708.742-1.708 1.656 0 .914.765 1.655 1.708 1.655h29.195c.943 0 1.707-.74 1.707-1.655 0-.914-.764-1.656-1.707-1.656zm-5.474 8.847H40.026c-.943 0-1.707.741-1.707 1.655s.764 1.655 1.707 1.655h18.247c.942 0 1.707-.741 1.707-1.655s-.764-1.655-1.707-1.655zm-23.729-62.15h29.21c2.95 0 5.35-2.327 5.35-5.2 0-2.86-2.4-5.187-5.35-5.187h-29.21c-2.949 0-5.349 2.327-5.349 5.2 0 2.86 2.4 5.187 5.35 5.187zm0-7.076h29.21c1.067 0 1.935.841 1.935 1.89 0 1.034-.868 1.876-1.935 1.876h-29.21c-1.066 0-1.934-.842-1.934-1.89 0-1.035.867-1.876 1.934-1.876zm-9.233 1.883c0-.914-.764-1.656-1.707-1.656H21.78c-.943 0-1.707.742-1.707 1.656 0 .914.764 1.655 1.707 1.655h1.825c.943 0 1.707-.741 1.707-1.655zm51.209-1.656h-1.825c-.942 0-1.707.742-1.707 1.656 0 .914.765 1.655 1.707 1.655h1.825c.943 0 1.707-.741 1.707-1.655s-.764-1.656-1.707-1.656z"/></symbol><symbol viewBox="0 0 16 16" id="search" xmlns="http://www.w3.org/2000/svg"><path fill-rule="evenodd" clip-rule="evenodd" d="M10.632 6.316a4.316 4.316 0 11-8.632 0 4.316 4.316 0 018.632 0zm-.613 5.117a6.316 6.316 0 111.414-1.414l4.274 4.274a1 1 0 11-1.414 1.415l-4.274-4.275z" fill-opacity=".6"/></symbol><symbol viewBox="0 0 24 20" id="telegram" xmlns="http://www.w3.org/2000/svg"><path d="M19.724 18.59l3.461-17.318c.114-.568-.464-1.033-1.016-.819L1.344 8.514a.832.832 0 00.043 1.577l5.28 1.733 1.97 6.393c.125.405.644.54.96.252l3.155-2.88 4.926 3.746c.754.573 1.864.17 2.046-.744z"/><path d="M19.284 4.506L9.577 13.15l-.57 5.418c-.182-.08-.377.15-2.354-6.718l12.326-7.73c.258-.162.532.183.305.385z"/><path d="M9.703 18.352l3.064-2.763-3.19-2.452-.57 5.432c.256.065.57-.118.696-.217z"/></symbol><symbol viewBox="0 0 26 14" id="up" xmlns="http://www.w3.org/2000/svg"><path d="M1.542 12.166L13 1.75l11.458 10.416"/></symbol><symbol viewBox="0 0 17 18" id="viber" xmlns="http://www.w3.org/2000/svg"><path d="M14.531 7.585c.021-2.481-2.05-4.756-4.618-5.07a3.673 3.673 0 01-.165-.026 2.354 2.354 0 00-.391-.044c-.526 0-.667.377-.704.602-.036.219-.002.402.102.546.174.242.48.285.727.32.072.01.14.019.197.032 2.307.526 3.083 1.352 3.463 3.685.01.057.013.128.018.202.016.279.05.86.662.86.051 0 .106-.005.163-.014.57-.088.551-.619.543-.874a1.22 1.22 0 01.001-.184.281.281 0 00.002-.035z"/><path d="M9.208 1.604c.068.005.133.01.187.018 3.787.595 5.529 2.425 6.011 6.32.009.066.01.146.011.232.005.304.015.937.681.95h.021c.209 0 .375-.064.494-.19.207-.222.193-.551.181-.815a4.005 4.005 0 01-.005-.18c.049-3.982-3.33-7.594-7.23-7.728-.017 0-.033 0-.048.003a.321.321 0 01-.046.002c-.04 0-.087-.003-.138-.007C9.266.205 9.197.2 9.126.2c-.621 0-.74.45-.755.719-.034.62.554.664.837.685zm6.016 11.371c-.08-.063-.164-.128-.242-.192-.413-.34-.853-.652-1.279-.955l-.264-.188c-.545-.39-1.035-.58-1.498-.58-.624 0-1.167.35-1.616 1.044-.199.307-.44.457-.737.457a1.44 1.44 0 01-.593-.153c-1.76-.813-3.016-2.061-3.734-3.708-.347-.796-.235-1.317.376-1.74.348-.24.993-.688.948-1.545-.052-.972-2.156-3.9-3.042-4.232a1.695 1.695 0 00-1.175-.003C1.35 1.53.618 2.143.253 2.955-.099 3.739-.083 4.66.3 5.618c1.106 2.77 2.66 5.184 4.621 7.176 1.92 1.95 4.278 3.549 7.01 4.749.247.108.505.167.694.21.064.015.12.027.16.039a.26.26 0 00.068.01h.022c1.285 0 2.828-1.199 3.302-2.565.415-1.196-.343-1.787-.952-2.262zM9.776 4.768c-.22.005-.678.017-.839.493-.075.222-.066.415.027.573.137.233.398.304.636.343.862.141 1.305.628 1.393 1.53.041.422.32.716.676.716a.653.653 0 00.08-.005c.43-.052.637-.374.619-.956.006-.608-.305-1.298-.835-1.847-.532-.551-1.174-.862-1.757-.847z"/></symbol><symbol viewBox="0 0 20 12" id="vk" xmlns="http://www.w3.org/2000/svg"><path d="M16.924 7.476c.637.622 1.31 1.207 1.88 1.892.253.304.492.618.674.97.26.502.025 1.055-.425 1.085l-2.797-.002c-.722.06-1.297-.23-1.781-.723-.387-.395-.746-.815-1.118-1.223a2.647 2.647 0 00-.504-.447c-.381-.248-.713-.172-.931.226-.222.405-.273.854-.295 1.305-.03.659-.229.832-.89.862-1.414.067-2.756-.147-4.003-.86-1.099-.629-1.951-1.517-2.693-2.522C2.597 6.082 1.491 3.932.497 1.722.273 1.223.437.956.987.947A75.923 75.923 0 013.724.945c.37.006.616.219.76.569a16.975 16.975 0 001.855 3.44c.202.284.408.57.701.77.325.222.572.148.724-.213.097-.23.14-.476.161-.721.073-.845.082-1.687-.045-2.529-.078-.525-.373-.865-.897-.964-.268-.05-.228-.15-.098-.303.225-.263.436-.427.858-.427h3.16c.498.099.609.322.677.823l.003 3.511c-.006.194.097.77.446.898.28.091.463-.133.631-.31.757-.803 1.297-1.752 1.78-2.735.214-.433.398-.881.576-1.33.133-.333.34-.497.715-.49l3.043.003c.09 0 .181.002.268.017.513.087.654.308.495.808-.25.786-.735 1.44-1.21 2.098-.507.702-1.05 1.38-1.552 2.086-.463.645-.426.97.148 1.53z"/></symbol><symbol viewBox="0 0 22 22" id="whatsap" xmlns="http://www.w3.org/2000/svg"><path d="M6.07 19.047a9.364 9.364 0 004.932 1.393c5.206 0 9.438-4.234 9.438-9.44 0-5.206-4.232-9.44-9.438-9.44h-.004c-5.206 0-9.439 4.233-9.439 9.44a9.37 9.37 0 001.606 5.26l-.994 2.963-.402 1.2 1.205-.386 3.096-.99z"/><path d="M16.123 14.627c-.212.6-1.055 1.096-1.727 1.242-.46.098-1.06.176-3.082-.663-2.586-1.071-4.252-3.699-4.382-3.87-.124-.17-1.045-1.391-1.045-2.654s.642-1.877.9-2.141c.213-.217.563-.316.9-.316.109 0 .207.005.295.01.258.01.388.026.559.434.212.512.729 1.775.79 1.904.063.13.126.306.038.477-.083.176-.155.254-.285.403-.13.15-.253.264-.383.425-.119.14-.253.29-.103.548.15.253.666 1.097 1.428 1.774.982.875 1.778 1.154 2.063 1.273.213.088.466.067.62-.098.198-.212.44-.564.688-.91.176-.25.398-.28.632-.192.237.082 1.495.704 1.753.832.259.13.429.192.492.3.061.11.061.621-.151 1.222z"/></symbol></svg>